<svg xmlns="http://www.w3.org/2000/svg" xmlns:xlink="http://www.w3.org/1999/xlink" width="432.899" height="108.739" viewBox="0 0 432.899 108.739"><defs><style>.a{fill:url(#a);}.b{fill:url(#b);}.c{fill:none;}.d{fill:#483f56;}.e{fill:#ef0396;}.f{fill:#4500b9;}.g{fill:#5339f4;}.h{fill:#f6e01b;}.i{fill:#fe5d00;}.j{fill:#b6fe08;}.k{fill:#fff;}.l{fill:#f18807;}.m{fill:#5d1216;}.n{fill:#3b0e18;}</style><linearGradient id="a" x1="0.5" y1="1" x2="0.5" gradientUnits="objectBoundingBox"><stop offset="0" stop-color="#5339f4"/><stop offset="1" stop-color="#00ccf6"/></linearGradient><linearGradient id="b" x1="0.5" y1="-0.005" x2="0.5" y2="1.005" gradientUnits="objectBoundingBox"><stop offset="0" stop-color="#4200fe"/><stop offset="0.51" stop-color="#f553fe"/><stop offset="1" stop-color="#f900a9"/></linearGradient></defs><g transform="translate(-693.992 -58.32)"><path class="a" d="M765.709,152.118,762.2,142.14l-.847-2.4h0l-16.4-46.569A3.438,3.438,0,0,0,741.4,91l-6.56.914.711,5.109a2.568,2.568,0,1,1-2.658.37l-.711-5.109L710.512,95.3l.711,5.11a2.569,2.569,0,1,1-2.659.37l-.711-5.109-6.56.913a3.43,3.43,0,0,0-2.825,3.049l-3.059,49.277h0l-.182,2.943h0l-.631,10.159a2.114,2.114,0,0,0,2.493,2.311l66.853-9.308A2.112,2.112,0,0,0,765.709,152.118Z"/><path class="b" d="M1026.99,162.934l1.333-69.654a3.348,3.348,0,0,0-2.472-3.148l-7.693-1.715,3.547-15.9a8.7,8.7,0,0,0-6.593-10.375l-11.7-2.608a8.7,8.7,0,0,0-10.375,6.592l-3.545,15.9L981.8,80.31a3.331,3.331,0,0,0-3.573,1.8l-22.587,50.608h0l-5.8,13.009a1.856,1.856,0,0,0,1.353,2.695l73.429,16.376a1.959,1.959,0,0,0,1.667-.327A1.939,1.939,0,0,0,1026.99,162.934ZM991.439,82.459l3.548-15.9h0a6.7,6.7,0,0,1,7.995-5.078l11.7,2.608a6.71,6.71,0,0,1,5.084,8l-3.551,15.9Z"/><path class="c" d="M892.887,120.91c-.073-.464-.146-.934-.219-1.388-.093-.575-.185-1.133-.277-1.694-.069-.418-.138-.843-.207-1.254-.093-.56-.187-1.1-.281-1.652-.068-.394-.136-.8-.2-1.185-.094-.542-.19-1.069-.285-1.6-.067-.376-.134-.759-.2-1.129-.1-.524-.192-1.033-.289-1.547-.068-.363-.135-.733-.2-1.092-.1-.5-.193-.987-.289-1.478-.07-.359-.14-.723-.211-1.077-.1-.489-.2-.967-.3-1.449-.07-.343-.14-.692-.211-1.032q-.257-1.218-.517-2.41a85.327,85.327,0,0,0-3.358-12.24l-.056-.144c-.059-.153-.118-.305-.182-.455l-.092-.209c-.123-.275-.254-.556-.4-.83-.044-.082-.087-.163-.132-.244-.022.038-.044.076-.065.115q-.243.434-.451.881c-.075.159-.145.314-.214.471l-.094.218a55.122,55.122,0,0,0-1.813,5.353c-1.432,4.918-2.525,9.872-3.406,14.069q-.359,1.713-.711,3.477c-.071.356-.141.727-.212,1.087-.163.828-.325,1.654-.486,2.5-.088.459-.174.936-.261,1.4-.143.77-.287,1.537-.43,2.327-.095.527-.19,1.074-.285,1.611-.115.645-.229,1.289-.343,1.949h16.9C893.029,121.806,892.958,121.358,892.887,120.91Z"/><path class="c" d="M925.449,116.461h0Z"/><path class="c" d="M925.986,116.393c3.446,4.706,11.229,3.56,11.307,3.547l.033,0c.079-.008,7.889-.8,10.092-6.184a1.29,1.29,0,0,1,0-.141c.038-.515.058-1.03.075-1.544.009-.271.017-.541.021-.811l.01-.5v-.15q.006-1.084-.02-2.166a56.972,56.972,0,0,0-1.381-11.727,25.558,25.558,0,0,0-3-7.585,10.165,10.165,0,0,0-5.554-4.565,12.094,12.094,0,0,0-8.185.633,9.571,9.571,0,0,0-4.763,5.075,21.758,21.758,0,0,0-1.527,8.106,48.67,48.67,0,0,0,.671,8.525c.21,1.308.454,2.6.725,3.829.124.574.255,1.144.394,1.717l.253,1.011c.252.945.51,1.89.817,2.814A1.108,1.108,0,0,1,925.986,116.393Z"/><path class="c" d="M1018.03,67.568a5.659,5.659,0,0,0-3.568-2.508l-11.7-2.609a5.7,5.7,0,0,0-6.8,4.321h0L992.632,81.7l22.822,5.09,3.332-14.927A5.653,5.653,0,0,0,1018.03,67.568Z"/><path class="c" d="M813.885,100.967c.058.058.118.115.179.169s.15.125.227.184.13.1.2.143.164.1.247.151.138.08.209.116c.089.044.179.081.27.119.071.029.141.06.213.085.1.034.2.06.3.086.069.018.136.039.206.054.111.023.223.037.336.05.061.008.122.019.183.024.129.009.26.008.39,0,.047,0,.093,0,.14,0a4.04,4.04,0,0,0,.523-.066h.012l21.046-4.142a3.913,3.913,0,0,0,.518-.14c.055-.018.107-.044.16-.065.112-.044.223-.087.329-.14.062-.03.12-.067.179-.1.093-.052.187-.1.275-.163.062-.041.119-.088.177-.133.081-.061.162-.122.238-.188.057-.051.11-.105.164-.158.071-.07.142-.14.208-.215.051-.059.1-.12.146-.181.06-.078.12-.156.175-.239.044-.066.085-.134.126-.2s.1-.17.142-.258.069-.148.1-.223c.018-.041.032-.083.048-.125a4.293,4.293,0,0,0-.432-.422c-.03-.023-.061-.043-.091-.065a4.078,4.078,0,0,0-1.48-.7l-.1-.027a4.022,4.022,0,0,0-.783-.087h-.146a3.943,3.943,0,0,0-.691.067l-21.047,4.14a4.043,4.043,0,0,0-.519.14c-.055.019-.106.044-.16.065-.111.044-.223.087-.329.139-.062.031-.121.069-.181.1-.092.052-.185.1-.273.162-.062.042-.12.089-.18.135-.079.06-.159.119-.234.185-.059.052-.113.108-.169.163s-.137.136-.2.209-.1.124-.15.187-.117.152-.171.232-.087.138-.129.209-.1.166-.138.253-.072.15-.1.227c-.019.044-.035.09-.052.135C813.817,100.9,813.85,100.933,813.885,100.967Z"/><path class="c" d="M795.258,109.982c-.013-.174-.026-.348-.044-.519-.026-.257-.06-.508-.1-.759-.023-.158-.043-.319-.07-.475-.046-.27-.1-.533-.16-.795-.028-.128-.052-.259-.083-.385-.094-.383-.2-.759-.319-1.124a12.8,12.8,0,0,0-1.28-2.765c-2.282-3.689-6.375-6.017-11.449-6.388h-.037a12.905,12.905,0,0,0-8.19,2.086,13.538,13.538,0,0,0-4.278,4.729c-.166.3-.331.622-.5.963-.055.114-.111.237-.167.357s-.127.28-.19.422l11.9,2.244,14.981,2.826C795.275,110.259,795.269,110.119,795.258,109.982Z"/><path class="c" d="M949.965,162.9c22.223.04,43.254.112,62.539.212l-42.718-9.526C968.41,157.353,964.324,160.495,949.965,162.9Z"/><path class="c" d="M699.524,164.491c11.987-.5,42.706-.936,84.66-1.229l-32.208-6.073Z"/><path class="c" d="M806.125,157.758a5,5,0,0,1-.5-1.346l-4.175-35.678-2.05,32.587h0l-.62,9.848q4.4-.026,8.938-.049a5.145,5.145,0,0,1-1.26-2.472Z"/><path class="c" d="M860.655,162.156l-1.094-6.643-38.347,7.542c12.673-.056,26-.1,39.832-.131a5.5,5.5,0,0,1-.353-.641Z"/><path class="c" d="M912.2,156.478c-.341-.949-.763-2.5-1.23-4.421l-1.688,10.226a5.5,5.5,0,0,1-.319.586H916.6C913.935,161.254,913.079,158.913,912.2,156.478Z"/><path class="c" d="M729.73,78.322a5.072,5.072,0,0,0-5.712-4.315l-10.65,1.482a5.069,5.069,0,0,0-4.315,5.711l1.885,13.539,20.676-2.878Z"/><path class="c" d="M697.019,163.831l51.878-7.223-3.82-.72,7.656-23.9h-7.8A2.993,2.993,0,0,1,741.944,129V128.1a2.993,2.993,0,0,1,2.989-2.989h10l.349-1.091L744.475,93.332a2.949,2.949,0,0,0-3.01-1.834l-6.064.845.6,4.353a3.04,3.04,0,0,1,1.552,2.253,3.068,3.068,0,1,1-6.078.846,3.042,3.042,0,0,1,.877-2.591l-.606-4.353L711.076,95.73l.606,4.353a3.036,3.036,0,0,1,1.551,2.251,3.072,3.072,0,0,1-2.616,3.463,3.188,3.188,0,0,1-.423.029c-.036,0-.07-.008-.106-.01-.085,0-.167-.013-.25-.022-.11-.014-.219-.03-.326-.054-.082-.019-.161-.042-.241-.068a2.92,2.92,0,0,1-.3-.112c-.077-.034-.151-.069-.225-.109a2.9,2.9,0,0,1-.271-.167c-.068-.046-.136-.092-.2-.144a2.938,2.938,0,0,1-.24-.22c-.057-.056-.114-.11-.166-.171a2.892,2.892,0,0,1-.2-.276c-.043-.063-.089-.122-.127-.187a3.08,3.08,0,0,1-.164-.349c-.026-.06-.057-.115-.078-.177a3.037,3.037,0,0,1,.736-3.169l-.606-4.354-6.065.845a2.941,2.941,0,0,0-2.394,2.585l-3.873,62.379a1.617,1.617,0,0,0,1.925,1.785Zm13.127-38.492a18.591,18.591,0,0,1,2.988-6.591,18.274,18.274,0,0,1,5.332-4.9,19.068,19.068,0,0,1,7.341-2.548h0a12.752,12.752,0,0,1,5.457.348,13.771,13.771,0,0,1,4.473,2.249,12.8,12.8,0,0,1,3.174,3.521,11.051,11.051,0,0,1,1.536,4.2,7.641,7.641,0,0,1-.642,4.109,12.33,12.33,0,0,1-2.791,3.928,17.844,17.844,0,0,1-4.652,3.166,20.977,20.977,0,0,1-6.25,1.836,20.039,20.039,0,0,1-3.127.192,3.8,3.8,0,0,0,.719,1.189,4.746,4.746,0,0,0,1.6,1.158,6.568,6.568,0,0,0,2.1.527,10.535,10.535,0,0,0,2.382-.063,14.194,14.194,0,0,0,2.6-.612,18.062,18.062,0,0,0,2.36-.989c.753-.382,1.48-.792,2.161-1.219s1.348-.865,1.964-1.289a.581.581,0,0,1,.111-.057l.441-.168a2.161,2.161,0,0,1,.476-.125.52.52,0,0,1,.591.46q.1.94.221,1.788t.276,2.072q.148,1.158.317,2.56a1.363,1.363,0,0,1,.15.3,1.784,1.784,0,0,1,.087.332c.09.638-.518,1.158-.718,1.328a12.156,12.156,0,0,1-1.648,1.145c-.658.395-1.437.8-2.314,1.216s-1.757.791-2.651,1.148c-.918.365-1.811.675-2.656.924a16.575,16.575,0,0,1-2.318.526,18.44,18.44,0,0,1-6.518-.245,17.178,17.178,0,0,1-5.934-2.5,15.924,15.924,0,0,1-6.952-11.3A20.436,20.436,0,0,1,710.146,125.339Z"/><path class="c" d="M969.1,112.289l.045.659c.084,1.225,2.05,30.083,1.439,36.285a23.14,23.14,0,0,1-.5,3.4l47.128,10.51,9.749.057a2.241,2.241,0,0,0,.03-.264l1.333-69.654a3.348,3.348,0,0,0-2.472-3.148l-7.693-1.715,3.547-15.9a8.7,8.7,0,0,0-6.593-10.375l-11.7-2.608a8.7,8.7,0,0,0-10.375,6.592l-3.545,15.9L981.8,80.31a3.331,3.331,0,0,0-3.573,1.8l-13.935,31.222a29.116,29.116,0,0,0,4.172-.861Zm25.886-45.735h0a6.7,6.7,0,0,1,7.995-5.078l11.7,2.608a6.71,6.71,0,0,1,5.084,8l-3.551,15.9-24.773-5.524Zm-21.351,46.324a.462.462,0,0,1,.149-.321.451.451,0,0,1,.333-.118l12.813.682.173-12.848a.457.457,0,0,1,.455-.452l21.284-.116h0a.457.457,0,0,1,.457.485l-.865,13.981,10.611.632a.459.459,0,0,1,.426.522l-1.843,12.892a.436.436,0,0,1-.465.393l-9.491-.251-.827,13.471a.461.461,0,0,1-.155.315.454.454,0,0,1-.3.114h-.03l-19.181-1.219a.458.458,0,0,1-.428-.456l-.038-12.791-13.182-.4a.462.462,0,0,1-.32-.145.456.456,0,0,1-.123-.33Z"/><path class="c" d="M728.737,123.982a4.919,4.919,0,0,0,1.394-1.3,1.393,1.393,0,0,0,.265-.889,1.046,1.046,0,0,0-.37-.63,3.447,3.447,0,0,0-.96-.6,4.821,4.821,0,0,0-1.227-.33,4.332,4.332,0,0,0-1.138-.015,4.4,4.4,0,0,0-1.929.741,5.771,5.771,0,0,0-1.513,1.594,9.159,9.159,0,0,0-1.074,2.371,14.624,14.624,0,0,0-.473,2.2,43.415,43.415,0,0,0,4.059-1.555A19.788,19.788,0,0,0,728.737,123.982Z"/><path class="d" d="M1027.96,163.205a2.875,2.875,0,0,1-1.056,2.048,2.822,2.822,0,0,1-1.768.6,3.462,3.462,0,0,1-.734-.082l-11.9-2.654c-19.285-.1-40.316-.172-62.539-.212-2.16.363-4.543.709-7.194,1.038a122.287,122.287,0,0,1-14.652,1.1q-1.419,0-2.677-.064v0l-.609-.035c-.329-.022-.586-.044-.841-.065l-.461-.042c-.312-.031-.612-.066-.9-.105l-.157-.019a15.059,15.059,0,0,1-5.869-1.841h-7.633a8.694,8.694,0,0,1-7.755,4H868.766a8.7,8.7,0,0,1-7.72-3.95c-13.834.031-27.159.075-39.832.131l-8.634,1.7a5.239,5.239,0,0,1-1.01.1,5.179,5.179,0,0,1-2.9-.89,5.25,5.25,0,0,1-.951-.842q-4.536.022-8.938.049l-.177,2.813-14.424-2.72c-41.954.293-72.673.726-84.66,1.229l-2.368.33a3.2,3.2,0,0,1-.434.03,2.76,2.76,0,0,1-.922-.159c-1.189.089-1.808.18-1.808.272,0,1.157,96.908,2.1,216.449,2.1s216.45-.938,216.45-2.1C1126.891,164.226,1087.494,163.578,1027.96,163.205Z"/><path class="d" d="M1024.618,164.794a1.959,1.959,0,0,0,1.667-.327,1.881,1.881,0,0,0,.675-1.269l-9.749-.057Z"/><path d="M697.156,164.821l2.368-.33,52.452-7.3,32.208,6.073,14.424,2.72.177-2.813.62-9.848h0l2.05-32.587,4.175,35.678a5,5,0,0,0,.5,1.346l.338,2.89a5.145,5.145,0,0,0,1.26,2.472,5.25,5.25,0,0,0,.951.842,5.179,5.179,0,0,0,2.9.89,5.239,5.239,0,0,0,1.01-.1l8.634-1.7,38.347-7.542,1.094,6.643.038.127a5.5,5.5,0,0,0,.353.641,8.7,8.7,0,0,0,7.72,3.95h32.446a8.694,8.694,0,0,0,7.755-4,5.5,5.5,0,0,0,.319-.586l1.688-10.226c.467,1.923.889,3.472,1.23,4.421.875,2.435,1.731,4.776,4.4,6.392a15.059,15.059,0,0,0,5.869,1.841l.157.019c.292.039.592.074.9.105l.461.042c.255.021.512.043.841.065l.609.035v0q1.258.063,2.677.064a122.287,122.287,0,0,0,14.652-1.1c2.651-.329,5.034-.675,7.194-1.038,14.359-2.409,18.445-5.551,19.821-9.314l42.718,9.526,11.9,2.654a3.462,3.462,0,0,0,.734.082,2.822,2.822,0,0,0,1.768-.6,2.875,2.875,0,0,0,1.056-2.048c.008-.085.029-.165.03-.252l1.333-69.654a4.345,4.345,0,0,0-3.254-4.142l-6.717-1.5,3.33-14.926a9.7,9.7,0,0,0-7.352-11.568l-11.7-2.609a9.7,9.7,0,0,0-11.567,7.35l-3.329,14.927-6.717-1.5a4.333,4.333,0,0,0-4.705,2.364l-14.169,31.749a18.964,18.964,0,0,1-11.407-2.36,72.375,72.375,0,0,0-.259-7.245c-.629-7.629-2.264-13.189-5.146-17.5a14.453,14.453,0,0,0-6.858-5.579,16.168,16.168,0,0,0-10.327,0c-5.5,1.717-9.155,6.894-10.038,14.2a47.784,47.784,0,0,0,.96,15.2c.334,1.679.692,3.223,1.089,4.707-2.683,2.652-7.562,5.651-15.885,5.431l-.66-.017.118.649c.023.132.109.6.24,1.322h-7.785c-.835-5.481-1.7-10.539-2.638-15.432-.809-4.227-1.82-9.216-3.178-14.168a53.276,53.276,0,0,0-1.749-5.437,13.057,13.057,0,0,0-2.151-3.925,3.179,3.179,0,0,0-4.01-.791,6.786,6.786,0,0,0-2.454,3.085,57.876,57.876,0,0,0-3.733,11.346l-.046.181c-2.248,8.84-3.871,17.64-5.165,25.141h-7.909L853.844,85.288a5.222,5.222,0,0,0-6.116-4.107l-45.044,8.861a5.218,5.218,0,0,0-4.111,6.076l1.783,15.237-2.363-.446c-.216-6.2-2.933-11.357-7.507-14.194-5.2-3.226-12.383-3.533-17.468-.747-3.835,2.1-6.056,5.9-7.282,8.857l-4.057-.765-5.89,18.387L745.419,93a3.953,3.953,0,0,0-4.092-2.492l-6.064.844-1.885-13.538a8.759,8.759,0,0,0-9.868-7.456L712.861,71.84a8.755,8.755,0,0,0-7.457,9.869l1.885,13.538-6.065.845a3.943,3.943,0,0,0-3.255,3.514L694.1,161.984a2.685,2.685,0,0,0,.823,2.182,2.531,2.531,0,0,0,.881.526,2.76,2.76,0,0,0,.922.159A3.2,3.2,0,0,0,697.156,164.821ZM768.4,105.328c.063-.142.127-.288.19-.422s.112-.243.167-.357c.166-.341.331-.665.5-.963a13.538,13.538,0,0,1,4.278-4.729,12.905,12.905,0,0,1,8.19-2.086h.037c5.074.371,9.167,2.7,11.449,6.388a12.8,12.8,0,0,1,1.28,2.765c.12.365.225.741.319,1.124.031.126.055.257.083.385.058.262.114.525.16.795.027.156.047.317.07.475.036.251.07.5.1.759.018.171.031.345.044.519.011.137.017.277.024.416L780.3,107.572Zm-3.045.443c-.064.168-.127.336-.186.5-.216.625-.394,1.191-.542,1.72a2.638,2.638,0,1,0,2.573.543,20.594,20.594,0,0,1,.789-2.271l27.338,5.156a22.332,22.332,0,0,1-.117,2.428,2.637,2.637,0,1,0,2.651.419,22.338,22.338,0,0,0,.153-2.341l2.466.466.324,2.768-3.121,49.626-51.306-9.675,7.409-23.128h5.447A2.992,2.992,0,0,0,762.22,129V128.1a2.992,2.992,0,0,0-2.989-2.989h-3.246l6.377-19.908Zm34.37-8.416-.162-1.392a4.219,4.219,0,0,1,3.316-4.94l45.045-8.86a4.168,4.168,0,0,1,3.153.639,4.21,4.21,0,0,1,1.8,2.717l.368,1.321a5.229,5.229,0,0,0-.774-.632,5.165,5.165,0,0,0-3.905-.791l-45.043,8.857a5.253,5.253,0,0,0-.9.275c-.061.024-.122.047-.181.073a5.226,5.226,0,0,0-.784.424c-.041.027-.077.058-.117.086a5.236,5.236,0,0,0-.623.514c-.034.034-.07.063-.1.1a5.3,5.3,0,0,0-.553.673c-.036.051-.069.1-.1.156A5.2,5.2,0,0,0,799.723,97.355Zm76.823,22.96c.095-.537.19-1.084.285-1.611.143-.79.287-1.557.43-2.327.087-.465.173-.942.261-1.4.161-.85.323-1.676.486-2.5.071-.36.141-.731.212-1.087q.353-1.766.711-3.477c.881-4.2,1.974-9.151,3.406-14.069a55.122,55.122,0,0,1,1.813-5.353l.094-.218c.069-.157.139-.312.214-.471q.208-.448.451-.881c.021-.039.043-.077.065-.115.045.081.088.162.132.244.146.274.277.555.4.83l.092.209c.064.15.123.3.182.455l.056.144a85.327,85.327,0,0,1,3.358,12.24q.261,1.193.517,2.41c.071.34.141.689.211,1.032.1.482.2.96.3,1.449.071.354.141.718.211,1.077.1.491.193.978.289,1.478.069.359.136.729.2,1.092.1.514.193,1.023.289,1.547.068.37.135.753.2,1.129.095.531.191,1.058.285,1.6.068.389.136.791.2,1.185.094.548.188,1.092.281,1.652.069.411.138.836.207,1.254.092.561.184,1.119.277,1.694.073.454.146.924.219,1.388.071.448.142.9.213,1.354H876.2C876.317,121.6,876.431,120.96,876.546,120.315Zm-5.1,5.6a2.052,2.052,0,0,0,1.435,2.447,2.169,2.169,0,0,0,1.7-.284,1.763,1.763,0,0,0,.817-1.2c.132-.824.279-1.647.426-2.469l.189-1.074h17.255l.086.549c.082.524.164,1.047.246,1.592.069.463.138.927.2,1.394a1.717,1.717,0,0,0,.795,1.19,2.182,2.182,0,0,0,1.721.3,2.052,2.052,0,0,0,1.438-2.438c-.089-.629-.19-1.257-.291-1.886q-.057-.35-.112-.7h7.814c.959,5.217,3.288,17.668,5.174,26.017l-2.067,12.554a7.533,7.533,0,0,1-7.064,3.89H868.766c-5,0-6.822-3.389-7.063-3.89l-6.351-38.571h16.525Q871.656,124.625,871.446,125.914Zm34.46-4.519h.231c8.379,0,13.317-3.225,16.006-5.983l.215-.22-.081-.3c-.423-1.553-.8-3.167-1.153-4.935a46.765,46.765,0,0,1-.947-14.864c.393-3.251,2.084-11.057,9.292-13.307a15.082,15.082,0,0,1,9.635-.018,13.38,13.38,0,0,1,6.337,5.169c2.777,4.15,4.356,9.548,4.969,16.988a70.587,70.587,0,0,1,.249,7.445l-.007.308.263.162c3.311,2.035,8.957,3.971,17.2,1.828.294,4.418,1.95,29.85,1.4,35.455-.578,5.89-1.034,10.541-26.877,13.749a100.244,100.244,0,0,1-17.635,1l-.164-.009c-.26-.017-.51-.038-.756-.06l-.447-.039q-.449-.047-.87-.1l-.071.532-.078-.551c-7.039-.953-8.082-3.856-9.4-7.531C911.309,150.815,906.7,125.748,905.906,121.395Zm-96.675,41.737a4.164,4.164,0,0,1-1.781-2.638L800.391,100.2a4.22,4.22,0,0,1,3.32-4.944L848.755,86.4a4.235,4.235,0,0,1,.813-.08,4.232,4.232,0,0,1,4.136,3.435l9.065,32.511h-8.682l5.312,32.262-47.013,9.246A4.182,4.182,0,0,1,809.231,163.132Zm-50-37.017a1.991,1.991,0,0,1,1.989,1.989V129a1.991,1.991,0,0,1-1.989,1.989h-14.3A1.992,1.992,0,0,1,742.944,129V128.1a1.992,1.992,0,0,1,1.989-1.989Zm219-44.009a3.331,3.331,0,0,1,3.573-1.8l7.695,1.715,3.545-15.9a8.7,8.7,0,0,1,10.375-6.592l11.7,2.608a8.7,8.7,0,0,1,6.593,10.375l-3.547,15.9,7.693,1.715a3.348,3.348,0,0,1,2.472,3.148l-1.333,69.654a2.241,2.241,0,0,1-.03.264,1.881,1.881,0,0,1-.675,1.269,1.959,1.959,0,0,1-1.667.327l-7.407-1.653-47.128-10.51a23.14,23.14,0,0,0,.5-3.4c.611-6.2-1.355-35.06-1.439-36.285l-.045-.659-.636.178a29.116,29.116,0,0,1-4.172.861ZM709.053,81.2a5.069,5.069,0,0,1,4.315-5.711l10.65-1.482a5.072,5.072,0,0,1,5.712,4.315l1.884,13.539-20.676,2.878Zm-13.959,80.846,3.873-62.379a2.941,2.941,0,0,1,2.394-2.585l6.065-.845.606,4.354a3.027,3.027,0,0,0-.736,3.169c.021.062.052.117.078.177a3.08,3.08,0,0,0,.164.349c.038.065.084.124.127.187a2.892,2.892,0,0,0,.2.276c.052.061.109.115.166.171a2.938,2.938,0,0,0,.24.22c.064.052.132.1.2.144a2.9,2.9,0,0,0,.271.167c.074.04.148.075.225.109a2.92,2.92,0,0,0,.3.112c.08.026.159.049.241.068.107.024.216.04.326.054.083.009.165.019.25.022.036,0,.07.01.106.01a3.188,3.188,0,0,0,.423-.029,3.072,3.072,0,0,0,2.616-3.463,3.036,3.036,0,0,0-1.551-2.251l-.606-4.353,20.675-2.879.606,4.353a3.063,3.063,0,0,0,2.585,5.207,3.073,3.073,0,0,0,2.616-3.462,3.04,3.04,0,0,0-1.552-2.253l-.6-4.353,6.064-.845a2.949,2.949,0,0,1,3.01,1.834l10.809,30.692-.349,1.091h-10a2.993,2.993,0,0,0-2.989,2.989V129a2.993,2.993,0,0,0,2.989,2.989h7.8l-7.656,23.9,3.82.72-51.878,7.223a1.617,1.617,0,0,1-1.925-1.785Z"/><path class="e" d="M755.985,125.115h3.246a2.992,2.992,0,0,1,2.989,2.989V129a2.992,2.992,0,0,1-2.989,2.989h-5.447l-7.409,23.128,51.306,9.675,3.121-49.626-.324-2.768-2.466-.466a22.338,22.338,0,0,1-.153,2.341,2.642,2.642,0,1,1-2.651-.419,22.332,22.332,0,0,0,.117-2.428l-27.338-5.156a20.594,20.594,0,0,0-.789,2.271,2.645,2.645,0,1,1-2.573-.543c.148-.529.326-1.1.542-1.72.059-.169.122-.337.186-.5l-2.991-.564Zm9.94,15.392a.635.635,0,0,1,.006-.166.775.775,0,0,1,.311-.516.828.828,0,0,1,.635-.119,1.128,1.128,0,0,1,.645.4,8.866,8.866,0,0,0,2.114,2.037,6.824,6.824,0,0,0,2.706,1.065,5.882,5.882,0,0,0,.942.074,3.307,3.307,0,0,0,1-.117,2.195,2.195,0,0,0,.783-.353.8.8,0,0,0,.319-.549,1.611,1.611,0,0,0-.079-.89,2.255,2.255,0,0,0-.528-.788c-.11-.107-.28-.281-.506-.531l-.736-.809q-.417-.462-.865-.979l-1.569-1.822c-.218-.258-.379-.45-.487-.585a10.3,10.3,0,0,1-1.668-2.254,7.958,7.958,0,0,1-.8-2.266,8.927,8.927,0,0,1-.12-2.3c.057-.749.158-1.548.3-2.374a7.873,7.873,0,0,1,1.556-3.513,9.369,9.369,0,0,1,3.1-2.552,13.231,13.231,0,0,1,4.287-1.319,16.718,16.718,0,0,1,5.2.137q.348.06,1.031.254c.468.137.96.308,1.464.507a13.458,13.458,0,0,1,1.6.763,7.234,7.234,0,0,1,1.477,1.074,2.4,2.4,0,0,1,.388.5,1.457,1.457,0,0,1,.143.793c-.127,1.16-.262,2.276-.408,3.374s-.29,2.25-.43,3.475a1.037,1.037,0,0,1-.459.785,1.018,1.018,0,0,1-.679.1.913.913,0,0,1-.621-.37q-.49-.695-1.027-1.379a9.727,9.727,0,0,0-1.119-1.2,6.7,6.7,0,0,0-1.295-.914,5.049,5.049,0,0,0-1.55-.521,6.463,6.463,0,0,0-1.064-.094,3.051,3.051,0,0,0-.93.143,1.58,1.58,0,0,0-.669.437,1.6,1.6,0,0,0-.36.826,3.466,3.466,0,0,0-.034,1.11,1.645,1.645,0,0,0,.575.869l4.407,4.25a13.78,13.78,0,0,1,1.956,2.411,9.746,9.746,0,0,1,1.045,2.253,7.861,7.861,0,0,1,.348,2.114,10.3,10.3,0,0,1-.143,1.93,8.443,8.443,0,0,1-1,2.806,9.809,9.809,0,0,1-1.8,2.253,11.189,11.189,0,0,1-2.371,1.684,14.071,14.071,0,0,1-2.717,1.1,13.445,13.445,0,0,1-2.883.5c-.269.017-.537.026-.8.026a11.9,11.9,0,0,1-2.024-.17q-1.023-.176-2.012-.379a17.826,17.826,0,0,1-1.939-.509,11.91,11.91,0,0,1-1.8-.755,7.943,7.943,0,0,1-1.619-1.131.442.442,0,0,1-.144-.386Z"/><path class="f" d="M800.806,95.743c.034-.034.07-.063.1-.1a5.236,5.236,0,0,1,.623-.514c.04-.028.076-.059.117-.086a5.226,5.226,0,0,1,.784-.424c.059-.026.12-.049.181-.073a5.253,5.253,0,0,1,.9-.275l45.043-8.857a5.165,5.165,0,0,1,3.905.791,5.229,5.229,0,0,1,.774.632l-.368-1.321a4.233,4.233,0,0,0-4.137-3.436,4.157,4.157,0,0,0-.813.08l-45.045,8.86a4.219,4.219,0,0,0-3.316,4.94l.162,1.392a5.2,5.2,0,0,1,.427-.783c.034-.052.067-.1.1-.156A5.3,5.3,0,0,1,800.806,95.743Z"/><path class="f" d="M842.469,96.882c-.019-.055-.044-.107-.065-.161-.045-.111-.091-.221-.145-.329-.009-.018-.02-.034-.03-.052a5.048,5.048,0,0,1-3.474,2.585l-21.047,4.142a5.047,5.047,0,0,1-4.2-1.079c0,.02-.006.04-.007.059-.01.122-.011.242-.009.362,0,.057,0,.114,0,.17a3.847,3.847,0,0,0,.064.524,4.081,4.081,0,0,0,4.786,3.216l21.049-4.14a4.048,4.048,0,0,0,2.086-1.106,4.172,4.172,0,0,0,.512-.623,4.053,4.053,0,0,0,.615-3.06A3.709,3.709,0,0,0,842.469,96.882Z"/><path class="g" d="M859.4,154.526l-5.312-32.262h8.682L853.7,89.753a4.2,4.2,0,0,0-4.949-3.355l-45.044,8.858a4.22,4.22,0,0,0-3.32,4.944l7.059,60.294a4.226,4.226,0,0,0,4.936,3.278ZM845.1,109.494a.952.952,0,0,1,.946.271,2.139,2.139,0,0,1,.386,1.006l.435,3.7q.2,1.609.363,3.206a20.663,20.663,0,0,1,.123,2.889l.223,3.3q.1,1.479.267,3.192t.393,3.847l1.134,11.556a2.6,2.6,0,0,1-.012.543.99.99,0,0,1-.466.715c-.091.062-.325.213-.693.447s-.795.5-1.3.805-1.033.629-1.6.972-1.121.664-1.642.958-.99.549-1.4.757a3.888,3.888,0,0,1-.968.4,1.464,1.464,0,0,1-.9-.1,1.242,1.242,0,0,1-.654-.967,53.663,53.663,0,0,1-.8-5.812q-.246-2.967-.554-5.887a2.961,2.961,0,0,0-.072-.54c-.01-.042-.018-.084-.027-.127l-7.445,1.453.979,9.806a2.715,2.715,0,0,1,0,.518,1,1,0,0,1-.459.73c-.036.03-.136.1-.878.534l-1.755,1.035q-.993.586-1.966,1.17t-1.479.9c-.165.11-.387.243-.655.388a3.223,3.223,0,0,1-.911.332,1.508,1.508,0,0,1-.3.03,1.38,1.38,0,0,1-.622-.147,1.268,1.268,0,0,1-.64-.973c-.147-.754-.287-1.617-.416-2.562s-.259-1.96-.384-3.014-.243-2.137-.348-3.251l-.323-3.416a21.393,21.393,0,0,1-2.259.333c-1.127.07-1.407-.455-1.47-.78a1.942,1.942,0,0,1,.228-1.152q.33-.729.76-1.748t.819-2.014l.68-1.73c.185-.468.31-.782.387-.969l-.542-5.523h0s-.033-.244-.087-.688-.115-.954-.184-1.555-.139-1.221-.209-1.862-.124-1.192-.166-1.648a7.189,7.189,0,0,1-.094-1.223,1.115,1.115,0,0,1,.744-.969l7.449-3.438a2.546,2.546,0,0,1,.717-.25.955.955,0,0,1,.946.271,2.133,2.133,0,0,1,.385,1.006c.115,1.167.227,2.182.341,3.1s.216,1.779.3,2.578.157,1.56.218,2.284.1,1.5.1,2.264l.2,3.053,7.317-1.512c-.232-1.88-.4-3.512-.5-4.856-.11-1.447-.222-2.6-.335-3.413q-.16-1.185-.236-1.692-.072-.487-.085-.559a3.283,3.283,0,0,1-.065-1.39,1.341,1.341,0,0,1,.8-.87l7.543-3.456A2.6,2.6,0,0,1,845.1,109.494Zm-32.376-8.668a5.063,5.063,0,0,1,3.854-3.491l21.047-4.141a5.078,5.078,0,0,1,1.96,9.966L818.54,107.3a5.078,5.078,0,0,1-5.961-4.005A5.011,5.011,0,0,1,812.728,100.826Z"/><path d="M817.561,107.4a5.113,5.113,0,0,0,.979-.1l21.049-4.141a5.079,5.079,0,0,0-1.96-9.966l-21.047,4.141a5.063,5.063,0,0,0-3.854,3.491,5.011,5.011,0,0,0-.149,2.47A5.087,5.087,0,0,0,817.561,107.4Zm-3.621-6.9c.043-.087.089-.17.138-.253s.084-.141.129-.209.112-.156.171-.232.1-.127.15-.187.133-.141.2-.209.11-.111.169-.163c.075-.066.155-.125.234-.185.06-.046.118-.093.18-.135.088-.059.181-.11.273-.162.06-.034.119-.072.181-.1.106-.052.218-.1.329-.139.054-.021.1-.046.16-.065a4.043,4.043,0,0,1,.519-.14l21.047-4.14a3.943,3.943,0,0,1,.691-.067h.146a4.022,4.022,0,0,1,.783.087l.1.027a4.078,4.078,0,0,1,1.48.7c.03.022.061.042.091.065a4.293,4.293,0,0,1,.432.422c-.016.042-.03.084-.048.125-.032.075-.065.15-.1.223s-.092.174-.142.258-.082.137-.126.2c-.055.083-.115.161-.175.239-.048.061-.1.122-.146.181-.066.075-.137.145-.208.215-.054.053-.107.107-.164.158-.076.066-.157.127-.238.188-.058.045-.115.092-.177.133-.088.059-.182.111-.275.163-.059.034-.117.071-.179.1-.106.053-.217.1-.329.14-.053.021-.105.047-.16.065a3.913,3.913,0,0,1-.518.14l-21.046,4.142H817.5a4.04,4.04,0,0,1-.523.066c-.047,0-.093,0-.14,0-.13,0-.261,0-.39,0-.061-.005-.122-.016-.183-.024-.113-.013-.225-.027-.336-.05-.07-.015-.137-.036-.206-.054-.1-.026-.2-.052-.3-.086-.072-.025-.142-.056-.213-.085-.091-.038-.181-.075-.27-.119-.071-.036-.139-.076-.209-.116s-.167-.1-.247-.151-.132-.094-.2-.143-.153-.119-.227-.184-.121-.111-.179-.169c-.035-.034-.068-.071-.1-.107.017-.045.033-.091.052-.135C813.868,100.648,813.9,100.572,813.94,100.5Zm28.054-.048a4.172,4.172,0,0,1-.512.623,4.048,4.048,0,0,1-2.086,1.106l-21.049,4.14a4.081,4.081,0,0,1-4.786-3.216,3.847,3.847,0,0,1-.064-.524c0-.056,0-.113,0-.17,0-.12,0-.24.009-.362,0-.019.005-.039.007-.059a5.047,5.047,0,0,0,4.2,1.079l21.047-4.142a5.048,5.048,0,0,0,3.474-2.585c.01.018.021.034.03.052.054.108.1.218.145.329.021.054.046.106.065.161a3.709,3.709,0,0,1,.14.508A4.053,4.053,0,0,1,841.994,100.45Z"/><path class="h" d="M880.838,150.382a8.025,8.025,0,0,0,1.358,2.4,5.471,5.471,0,0,0,2.048,1.527,5.309,5.309,0,0,0,2.85.282,6.2,6.2,0,0,0,2.142-.833,5.6,5.6,0,0,0,1.489-1.388,6.507,6.507,0,0,0,.928-1.814,10.694,10.694,0,0,0,.469-2.123,14.432,14.432,0,0,0,.082-2.246c-.032-.766-.1-1.509-.2-2.207a9.928,9.928,0,0,0-.754-2.657,7.1,7.1,0,0,0-1.418-2.116,5.612,5.612,0,0,0-2.011-1.3,5.151,5.151,0,0,0-2.556-.23,4.74,4.74,0,0,0-1.932.688,5.706,5.706,0,0,0-1.449,1.335,7.353,7.353,0,0,0-1,1.8,12.282,12.282,0,0,0-.6,2.071,12.752,12.752,0,0,0-.236,2.085,13.442,13.442,0,0,0,.072,1.889A13.908,13.908,0,0,0,880.838,150.382Z"/><path class="h" d="M855.352,123.338l6.351,38.571c.241.5,2.064,3.89,7.063,3.89h32.446a7.533,7.533,0,0,0,7.064-3.89l2.067-12.554c-1.886-8.349-4.215-20.8-5.174-26.017h-7.814q.056.35.112.7c.1.629.2,1.257.291,1.886a2.052,2.052,0,0,1-1.438,2.438,2.182,2.182,0,0,1-1.721-.3,1.717,1.717,0,0,1-.795-1.19c-.066-.467-.135-.931-.2-1.394-.082-.545-.164-1.068-.246-1.592l-.086-.549H876.013l-.189,1.074c-.147.822-.294,1.645-.426,2.469a1.763,1.763,0,0,1-.817,1.2,2.169,2.169,0,0,1-1.7.284,2.052,2.052,0,0,1-1.435-2.447q.21-1.292.431-2.576Zm16.709,14.736a16.442,16.442,0,0,1,3.568-4.29,18.131,18.131,0,0,1,4.869-2.963c0-.015.008-.034.013-.058a7.454,7.454,0,0,0,.108-.843,7.279,7.279,0,0,1,.137-.981.974.974,0,0,1,.81-.871,38.34,38.34,0,0,1,7.611.406,16.555,16.555,0,0,1,6.062,2.182,12.838,12.838,0,0,1,4.28,4.426,18.844,18.844,0,0,1,2.244,7,19.315,19.315,0,0,1,.054,5.2,18.327,18.327,0,0,1-1.241,4.68,16.963,16.963,0,0,1-2.375,4.03,17.751,17.751,0,0,1-3.357,3.235,19.045,19.045,0,0,1-4.174,2.32,20.444,20.444,0,0,1-4.813,1.274,15.575,15.575,0,0,1-2.178.157,12.618,12.618,0,0,1-3.787-.557,13.02,13.02,0,0,1-4.781-2.674,14.868,14.868,0,0,1-3.364-4.383,17.513,17.513,0,0,1-1.732-5.557,19.6,19.6,0,0,1,.083-6.316A17.07,17.07,0,0,1,872.061,138.074Z"/><path d="M1019.763,72.081a6.71,6.71,0,0,0-5.084-8l-11.7-2.608a6.7,6.7,0,0,0-7.995,5.078h0l-3.548,15.9,24.773,5.524ZM992.632,81.7l3.331-14.928h0a5.7,5.7,0,0,1,6.8-4.321l11.7,2.609a5.709,5.709,0,0,1,4.324,6.8l-3.332,14.927Z"/><path class="i" d="M944.1,132.512a4.141,4.141,0,0,0-2.411-.265c-.166.024-.352.059-.559.108a3.141,3.141,0,0,0-.538.175,1.907,1.907,0,0,0-.34.182l.018.364c.01.178.024.48.041.9s.036.886.061,1.416.055,1.091.088,1.678.062,1.152.089,1.686L940.67,141l.005.03h.007a4.133,4.133,0,0,0,1.185-.4,6.341,6.341,0,0,0,1.373-.926,6.943,6.943,0,0,0,1.209-1.389,4.708,4.708,0,0,0,.7-1.755,5.262,5.262,0,0,0,.081-.993,10.3,10.3,0,0,0-.114-1.454A1.916,1.916,0,0,0,944.1,132.512Z"/><path class="i" d="M913.215,156.115c1.321,3.675,2.364,6.578,9.4,7.531l.078.551.071-.532q.421.056.87.1l.447.039c.246.022.5.043.756.06l.164.009a100.244,100.244,0,0,0,17.635-1c25.843-3.208,26.3-7.859,26.877-13.749.553-5.605-1.1-31.037-1.4-35.455-8.247,2.143-13.893.207-17.2-1.828l-.263-.162.007-.308a70.587,70.587,0,0,0-.249-7.445c-.613-7.44-2.192-12.838-4.969-16.988a13.38,13.38,0,0,0-6.337-5.169,15.082,15.082,0,0,0-9.635.018c-7.208,2.25-8.9,10.056-9.292,13.307a46.765,46.765,0,0,0,.947,14.864c.352,1.768.73,3.382,1.153,4.935l.081.3-.215.22c-2.689,2.758-7.627,5.982-16.006,5.983h-.231C906.7,125.748,911.309,150.815,913.215,156.115Zm40.09-28.066a10.071,10.071,0,0,1,1.669,4.564v.006a15.945,15.945,0,0,1,.109,3.362,11.175,11.175,0,0,1-.585,2.806,9.968,9.968,0,0,1-1.214,2.365,14.028,14.028,0,0,1-1.749,2.04,16.281,16.281,0,0,1-4.378,2.994,17.652,17.652,0,0,1-5.01,1.5q-.429.06-.85.1c-.1.01-.209.018-.314.026l.353,7.143a.534.534,0,0,1-.034.217l-.263.693c-.074.217-.253.36-.9.714q-.636.347-1.6.823l-1.247.621c-.377.2-.721.389-1.018.557s-.6.328-.865.467a6.062,6.062,0,0,1-.854.364,5.124,5.124,0,0,1-.917.212,1.626,1.626,0,0,1-.216.015,1.124,1.124,0,0,1-.629-.178,1.212,1.212,0,0,1-.483-.914l-.275-3.617c-.057-.715-.106-1.437-.143-2.162s-.093-1.535-.166-2.452l-.3-5.029q-.089-1.531-.2-3.058t-.2-2.921q-.09-1.383-.174-2.588l-.1-1.394q-.648.235-1.1.377a7.16,7.16,0,0,1-1.1.278.9.9,0,0,1-1.1-.769.534.534,0,0,1,0-.149c.1-.7.184-1.386.257-2.055l.426-3.332a2.436,2.436,0,0,1,.21-.775,1.5,1.5,0,0,1,.478-.559,3.354,3.354,0,0,1,.632-.341c.209-.092.469-.213.775-.366.271-.129.643-.281,1.125-.46s1.011-.356,1.622-.55,1.267-.388,1.98-.588,1.435-.39,2.171-.572,1.464-.348,2.182-.5,1.416-.274,2.061-.365a22.911,22.911,0,0,1,4.656-.2,11.314,11.314,0,0,1,4.122,1.012A8.212,8.212,0,0,1,953.3,128.049Zm-31.284-29.7a22.8,22.8,0,0,1,1.612-8.5,10.633,10.633,0,0,1,5.3-5.626,13.059,13.059,0,0,1,8.964-.682,11.316,11.316,0,0,1,6.126,5,27.284,27.284,0,0,1,3.148,7.925,57.989,57.989,0,0,1,1.41,11.949c.017.733.025,1.465.02,2.2l-.01.668c-.005.268-.013.545-.022.822-.018.529-.038,1.058-.077,1.587l-.031.349c-2.357,6.026-10.476,6.912-11.018,6.964a16.883,16.883,0,0,1-2.391.156c-2.824,0-7.437-.613-10.005-4.235l-.085-.189.488-.273h0l-.514.152c-.275-.829-.51-1.666-.726-2.466H924.2l-.35-1.413c-.149-.615-.281-1.193-.407-1.775-.275-1.25-.523-2.559-.736-3.887A49.638,49.638,0,0,1,922.021,98.351Z"/><path d="M923.441,110.96c.126.582.258,1.16.407,1.775l.35,1.413h.011c.216.8.451,1.637.726,2.466l.514-.152h0l-.488.273.085.189c2.568,3.622,7.181,4.235,10.005,4.235a16.883,16.883,0,0,0,2.391-.156c.542-.052,8.661-.938,11.018-6.964l.031-.349c.039-.529.059-1.058.077-1.587.009-.277.017-.554.022-.822l.01-.668c.005-.733,0-1.465-.02-2.2a57.989,57.989,0,0,0-1.41-11.949,27.284,27.284,0,0,0-3.148-7.925,11.316,11.316,0,0,0-6.126-5,13.059,13.059,0,0,0-8.964.682,10.633,10.633,0,0,0-5.3,5.626,22.8,22.8,0,0,0-1.612,8.5,49.638,49.638,0,0,0,.684,8.722C922.918,108.4,923.166,109.71,923.441,110.96Zm1.7,2.5-.253-1.011c-.139-.573-.27-1.143-.394-1.717-.271-1.233-.515-2.521-.725-3.829a48.67,48.67,0,0,1-.671-8.525,21.758,21.758,0,0,1,1.527-8.106,9.571,9.571,0,0,1,4.763-5.075,12.094,12.094,0,0,1,8.185-.633,10.165,10.165,0,0,1,5.554,4.565,25.558,25.558,0,0,1,3,7.585,56.972,56.972,0,0,1,1.381,11.727q.026,1.083.02,2.166v.15l-.01.5c0,.27-.012.54-.021.811-.017.514-.037,1.029-.075,1.544a1.29,1.29,0,0,0,0,.141c-2.2,5.387-10.013,6.176-10.092,6.184l-.033,0c-.078.013-7.861,1.159-11.307-3.547a1.108,1.108,0,0,0-.032-.119C925.647,115.35,925.389,114.4,925.137,113.46Z"/><path class="j" d="M987.629,127.347l.038,12.806,18.3,1.163.826-13.454a.48.48,0,0,1,.469-.43l9.525.252,1.715-12-10.573-.63a.458.458,0,0,1-.43-.485l.864-13.95-20.346.111-.173,12.875a.459.459,0,0,1-.146.329.487.487,0,0,1-.336.122l-12.825-.682-.51,13.115,13.162.4A.457.457,0,0,1,987.629,127.347Z"/><path d="M973.533,127.394l13.182.4.038,12.791a.458.458,0,0,0,.428.456l19.181,1.219h.03a.454.454,0,0,0,.3-.114.461.461,0,0,0,.155-.315l.827-13.471,9.491.251a.436.436,0,0,0,.465-.393l1.843-12.892a.459.459,0,0,0-.426-.522l-10.611-.632.865-13.981a.457.457,0,0,0-.457-.485h0l-21.284.116a.457.457,0,0,0-.455.452l-.173,12.848-12.813-.682a.451.451,0,0,0-.333.118.462.462,0,0,0-.149.321l-.546,14.041a.456.456,0,0,0,.123.33A.462.462,0,0,0,973.533,127.394Zm1-14.016,12.825.682a.487.487,0,0,0,.336-.122.459.459,0,0,0,.146-.329l.173-12.875,20.346-.111-.864,13.95a.458.458,0,0,0,.43.485l10.573.63-1.715,12-9.525-.252a.48.48,0,0,0-.469.43l-.826,13.454-18.3-1.163-.038-12.806a.457.457,0,0,0-.444-.456l-13.162-.4Z"/><path class="j" d="M1.989,0h14.3a1.99,1.99,0,0,1,1.99,1.99v.894a1.989,1.989,0,0,1-1.989,1.989H1.989A1.989,1.989,0,0,1,0,2.883V1.989A1.989,1.989,0,0,1,1.989,0Z" transform="translate(742.944 126.115)"/><path class="k" d="M768.847,149.36a17.015,17.015,0,0,0,1.842.484q.977.2,1.984.373a11.232,11.232,0,0,0,2.62.134,12.57,12.57,0,0,0,2.692-.466,13.081,13.081,0,0,0,2.544-1.028,10.323,10.323,0,0,0,2.182-1.549,8.913,8.913,0,0,0,1.637-2.049,7.541,7.541,0,0,0,.895-2.508,9.45,9.45,0,0,0,.13-1.763,6.947,6.947,0,0,0-.31-1.872,8.8,8.8,0,0,0-.95-2.043,12.834,12.834,0,0,0-1.823-2.243l-4.392-4.236a2.469,2.469,0,0,1-.845-1.38,4.337,4.337,0,0,1,.037-1.4,2.367,2.367,0,0,1,1.62-1.957,3.494,3.494,0,0,1,1.223-.191,7.353,7.353,0,0,1,1.21.107,5.925,5.925,0,0,1,1.823.616,7.591,7.591,0,0,1,1.469,1.036,10.717,10.717,0,0,1,1.223,1.316q.551.7,1.056,1.417a.777.777,0,0,0,.119.007c0-.017.014-.06.026-.131.138-1.208.282-2.372.428-3.468s.28-2.2.4-3.329a.571.571,0,0,0-.033-.285,1.469,1.469,0,0,0-.235-.3,6.331,6.331,0,0,0-1.283-.929,12.62,12.62,0,0,0-1.5-.713c-.479-.19-.945-.351-1.384-.479-.412-.117-.723-.2-.934-.233a15.9,15.9,0,0,0-4.925-.132,12.337,12.337,0,0,0-4,1.226,8.476,8.476,0,0,0-2.806,2.307,6.98,6.98,0,0,0-1.382,3.119c-.139.8-.237,1.568-.291,2.29a8,8,0,0,0,.108,2.075,7.029,7.029,0,0,0,.71,2.011,9.577,9.577,0,0,0,1.55,2.084c.129.159.286.345.495.593l1.565,1.817c.293.34.578.661.851.963l.735.808c.208.231.364.392.468.492a3.179,3.179,0,0,1,.735,1.1,2.523,2.523,0,0,1,.129,1.368,1.686,1.686,0,0,1-.673,1.12,3.1,3.1,0,0,1-1.095.5,5.682,5.682,0,0,1-1.221.143,6.816,6.816,0,0,1-1.088-.087,7.716,7.716,0,0,1-3.056-1.207,9.718,9.718,0,0,1-2.307-2.215l-.02-.021-.887,7.161a7.016,7.016,0,0,0,1.261.852A11.046,11.046,0,0,0,768.847,149.36Z"/><path d="M766.768,149.454a11.91,11.91,0,0,0,1.8.755,17.826,17.826,0,0,0,1.939.509q.988.2,2.012.379a11.9,11.9,0,0,0,2.024.17c.265,0,.533-.009.8-.026a13.445,13.445,0,0,0,2.883-.5,14.071,14.071,0,0,0,2.717-1.1,11.189,11.189,0,0,0,2.371-1.684,9.809,9.809,0,0,0,1.8-2.253,8.443,8.443,0,0,0,1-2.806,10.3,10.3,0,0,0,.143-1.93,7.861,7.861,0,0,0-.348-2.114,9.746,9.746,0,0,0-1.045-2.253,13.78,13.78,0,0,0-1.956-2.411l-4.407-4.25a1.645,1.645,0,0,1-.575-.869,3.466,3.466,0,0,1,.034-1.11,1.6,1.6,0,0,1,.36-.826A1.58,1.58,0,0,1,779,126.7a3.051,3.051,0,0,1,.93-.143,6.463,6.463,0,0,1,1.064.094,5.049,5.049,0,0,1,1.55.521,6.7,6.7,0,0,1,1.295.914,9.727,9.727,0,0,1,1.119,1.2q.535.684,1.027,1.379a.913.913,0,0,0,.621.37,1.018,1.018,0,0,0,.679-.1,1.037,1.037,0,0,0,.459-.785q.21-1.837.43-3.475c.146-1.1.281-2.214.408-3.374a1.457,1.457,0,0,0-.143-.793,2.4,2.4,0,0,0-.388-.5,7.234,7.234,0,0,0-1.477-1.074,13.458,13.458,0,0,0-1.6-.763c-.5-.2-1-.37-1.464-.507s-.8-.214-1.031-.254a16.718,16.718,0,0,0-5.2-.137,13.231,13.231,0,0,0-4.287,1.319,9.369,9.369,0,0,0-3.1,2.552,7.873,7.873,0,0,0-1.556,3.513c-.143.826-.244,1.625-.3,2.374a8.927,8.927,0,0,0,.12,2.3,7.958,7.958,0,0,0,.8,2.266,10.3,10.3,0,0,0,1.668,2.254c.108.135.269.327.487.585l1.569,1.822q.447.518.865.979l.736.809c.226.25.4.424.506.531a2.255,2.255,0,0,1,.528.788,1.611,1.611,0,0,1,.079.89.8.8,0,0,1-.319.549,2.195,2.195,0,0,1-.783.353,3.307,3.307,0,0,1-1,.117,5.882,5.882,0,0,1-.942-.074,6.824,6.824,0,0,1-2.706-1.065,8.866,8.866,0,0,1-2.114-2.037,1.128,1.128,0,0,0-.645-.4.828.828,0,0,0-.635.119.775.775,0,0,0-.311.516.635.635,0,0,0-.006.166l-.92,7.43a.442.442,0,0,0,.144.386A7.943,7.943,0,0,0,766.768,149.454Zm.039-8.8.02.021a9.718,9.718,0,0,0,2.307,2.215,7.716,7.716,0,0,0,3.056,1.207,6.816,6.816,0,0,0,1.088.087,5.682,5.682,0,0,0,1.221-.143,3.1,3.1,0,0,0,1.095-.5,1.686,1.686,0,0,0,.673-1.12,2.523,2.523,0,0,0-.129-1.368,3.179,3.179,0,0,0-.735-1.1c-.1-.1-.26-.261-.468-.492l-.735-.808c-.273-.3-.558-.623-.851-.963l-1.565-1.817c-.209-.248-.366-.434-.495-.593a9.577,9.577,0,0,1-1.55-2.084,7.029,7.029,0,0,1-.71-2.011,8,8,0,0,1-.108-2.075c.054-.722.152-1.492.291-2.29a6.98,6.98,0,0,1,1.382-3.119,8.476,8.476,0,0,1,2.806-2.307,12.337,12.337,0,0,1,4-1.226,15.9,15.9,0,0,1,4.925.132c.211.037.522.116.934.233.439.128.9.289,1.384.479a12.62,12.62,0,0,1,1.5.713,6.331,6.331,0,0,1,1.283.929,1.469,1.469,0,0,1,.235.3.571.571,0,0,1,.033.285q-.184,1.693-.4,3.329c-.146,1.1-.29,2.26-.428,3.468-.012.071-.026.114-.026.131a.777.777,0,0,1-.119-.007q-.505-.716-1.056-1.417a10.717,10.717,0,0,0-1.223-1.316,7.591,7.591,0,0,0-1.469-1.036,5.925,5.925,0,0,0-1.823-.616,7.353,7.353,0,0,0-1.21-.107,3.494,3.494,0,0,0-1.223.191,2.367,2.367,0,0,0-1.62,1.957,4.337,4.337,0,0,0-.037,1.4,2.469,2.469,0,0,0,.845,1.38l4.392,4.236a12.834,12.834,0,0,1,1.823,2.243,8.8,8.8,0,0,1,.95,2.043,6.947,6.947,0,0,1,.31,1.872,9.45,9.45,0,0,1-.13,1.763,7.541,7.541,0,0,1-.895,2.508,8.913,8.913,0,0,1-1.637,2.049,10.323,10.323,0,0,1-2.182,1.549,13.081,13.081,0,0,1-2.544,1.028,12.57,12.57,0,0,1-2.692.466,11.232,11.232,0,0,1-2.62-.134q-1.008-.172-1.984-.373a17.015,17.015,0,0,1-1.842-.484,11.046,11.046,0,0,1-1.666-.7,7.016,7.016,0,0,1-1.261-.852Z"/><path class="k" d="M713.1,139.044a15.122,15.122,0,0,0,4.26,4.347,16.191,16.191,0,0,0,5.575,2.348,17.408,17.408,0,0,0,6.152.231,15.67,15.67,0,0,0,2.169-.494c.814-.24,1.677-.54,2.564-.892s1.748-.728,2.594-1.124,1.593-.789,2.221-1.166a11.226,11.226,0,0,0,1.506-1.043c.331-.283.363-.418.364-.419a.918.918,0,0,1-.039-.1.405.405,0,0,0-.072-.121.527.527,0,0,1-.113-.266q-.177-1.478-.333-2.687t-.273-2.06q-.081-.574-.154-1.19l-.116.044q-.918.629-1.949,1.277c-.706.443-1.461.868-2.242,1.265a19.166,19.166,0,0,1-2.5,1.047,15.2,15.2,0,0,1-2.788.656,11.37,11.37,0,0,1-2.622.069,7.59,7.59,0,0,1-2.426-.613,5.771,5.771,0,0,1-1.95-1.411,5.155,5.155,0,0,1-1.164-2.308.525.525,0,0,1,.1-.451.541.541,0,0,1,.424-.189,20.772,20.772,0,0,0,3.672-.164,19.931,19.931,0,0,0,5.94-1.743,16.757,16.757,0,0,0,4.381-2.975,11.269,11.269,0,0,0,2.559-3.593,6.619,6.619,0,0,0,.568-3.55,10.04,10.04,0,0,0-1.4-3.807,11.747,11.747,0,0,0-2.917-3.234,12.726,12.726,0,0,0-4.136-2.076,11.733,11.733,0,0,0-5.014-.316h0a18.03,18.03,0,0,0-6.942,2.4,17.251,17.251,0,0,0-5.03,4.62,17.559,17.559,0,0,0-2.82,6.225,19.381,19.381,0,0,0-.3,7.234A15.106,15.106,0,0,0,713.1,139.044Zm8.088-14.412a10.174,10.174,0,0,1,1.2-2.641,6.815,6.815,0,0,1,1.788-1.878,5.442,5.442,0,0,1,2.381-.918,5.223,5.223,0,0,1,1.42.015,5.858,5.858,0,0,1,1.5.4,4.469,4.469,0,0,1,1.248.779,2.057,2.057,0,0,1,.707,1.261,2.373,2.373,0,0,1-.41,1.582,5.811,5.811,0,0,1-1.689,1.606,20.82,20.82,0,0,1-3.127,1.691,47.905,47.905,0,0,1-4.942,1.852.521.521,0,0,1-.486-.09.52.52,0,0,1-.193-.455A16.378,16.378,0,0,1,721.187,124.632Z"/><path d="M712.226,139.615a16.154,16.154,0,0,0,4.553,4.643,17.178,17.178,0,0,0,5.934,2.5,18.44,18.44,0,0,0,6.518.245,16.575,16.575,0,0,0,2.318-.526c.845-.249,1.738-.559,2.656-.924.894-.357,1.786-.743,2.651-1.148s1.656-.821,2.314-1.216a12.156,12.156,0,0,0,1.648-1.145c.2-.17.808-.69.718-1.328a1.784,1.784,0,0,0-.087-.332,1.363,1.363,0,0,0-.15-.3q-.168-1.4-.317-2.56-.154-1.214-.276-2.072t-.221-1.788a.52.52,0,0,0-.591-.46,2.161,2.161,0,0,0-.476.125l-.441.168a.581.581,0,0,0-.111.057q-.924.636-1.964,1.289c-.681.427-1.408.837-2.161,1.219a18.062,18.062,0,0,1-2.36.989,14.194,14.194,0,0,1-2.6.612,10.535,10.535,0,0,1-2.382.063,6.568,6.568,0,0,1-2.1-.527,4.746,4.746,0,0,1-1.6-1.158,3.8,3.8,0,0,1-.719-1.189,20.039,20.039,0,0,0,3.127-.192,20.977,20.977,0,0,0,6.25-1.836,17.844,17.844,0,0,0,4.652-3.166,12.33,12.33,0,0,0,2.791-3.928,7.641,7.641,0,0,0,.642-4.109,11.051,11.051,0,0,0-1.536-4.2,12.8,12.8,0,0,0-3.174-3.521,13.771,13.771,0,0,0-4.473-2.249,12.752,12.752,0,0,0-5.457-.348h0a19.068,19.068,0,0,0-7.341,2.548,18.274,18.274,0,0,0-5.332,4.9,18.591,18.591,0,0,0-2.988,6.591,20.436,20.436,0,0,0-.319,7.622A16.13,16.13,0,0,0,712.226,139.615Zm-1.066-14.033a17.559,17.559,0,0,1,2.82-6.225,17.251,17.251,0,0,1,5.03-4.62,18.03,18.03,0,0,1,6.942-2.4h0a11.733,11.733,0,0,1,5.014.316,12.726,12.726,0,0,1,4.136,2.076,11.747,11.747,0,0,1,2.917,3.234,10.04,10.04,0,0,1,1.4,3.807,6.619,6.619,0,0,1-.568,3.55,11.269,11.269,0,0,1-2.559,3.593,16.757,16.757,0,0,1-4.381,2.975,19.931,19.931,0,0,1-5.94,1.743,20.772,20.772,0,0,1-3.672.164.541.541,0,0,0-.424.189.525.525,0,0,0-.1.451,5.155,5.155,0,0,0,1.164,2.308,5.771,5.771,0,0,0,1.95,1.411,7.59,7.59,0,0,0,2.426.613,11.37,11.37,0,0,0,2.622-.069,15.2,15.2,0,0,0,2.788-.656,19.166,19.166,0,0,0,2.5-1.047c.781-.4,1.536-.822,2.242-1.265q1.031-.646,1.949-1.277l.116-.044q.073.616.154,1.19.12.854.273,2.06t.333,2.687a.527.527,0,0,0,.113.266.405.405,0,0,1,.072.121.918.918,0,0,0,.039.1s-.033.136-.364.419a11.226,11.226,0,0,1-1.506,1.043c-.628.377-1.376.769-2.221,1.166s-1.719.774-2.594,1.124-1.75.652-2.564.892a15.67,15.67,0,0,1-2.169.494,17.408,17.408,0,0,1-6.152-.231,16.191,16.191,0,0,1-5.575-2.348,14.882,14.882,0,0,1-6.5-10.575A19.381,19.381,0,0,1,711.16,125.582Z"/><path d="M721.1,128.409a.514.514,0,0,0,.16-.025,47.905,47.905,0,0,0,4.942-1.852,20.82,20.82,0,0,0,3.127-1.691,5.811,5.811,0,0,0,1.689-1.606,2.373,2.373,0,0,0,.41-1.582,2.057,2.057,0,0,0-.707-1.261,4.469,4.469,0,0,0-1.248-.779,5.858,5.858,0,0,0-1.5-.4,5.223,5.223,0,0,0-1.42-.015,5.442,5.442,0,0,0-2.381.918,6.815,6.815,0,0,0-1.788,1.878,10.174,10.174,0,0,0-1.2,2.641,16.378,16.378,0,0,0-.606,3.207.522.522,0,0,0,.519.57Zm1.085-3.475a9.159,9.159,0,0,1,1.074-2.371,5.771,5.771,0,0,1,1.513-1.594,4.4,4.4,0,0,1,1.929-.741,4.332,4.332,0,0,1,1.138.015,4.821,4.821,0,0,1,1.227.33,3.447,3.447,0,0,1,.96.6,1.046,1.046,0,0,1,.37.63,1.393,1.393,0,0,1-.265.889,4.919,4.919,0,0,1-1.394,1.3,19.788,19.788,0,0,1-2.966,1.6,43.415,43.415,0,0,1-4.059,1.555A14.624,14.624,0,0,1,722.185,124.934Z"/><path class="k" d="M837.094,115.273c.01.048.04.248.093.6s.129.91.237,1.7c.115.837.23,2.006.341,3.474.108,1.436.294,3.207.553,5.264a.5.5,0,0,1-.4.552l-8.332,1.722a.493.493,0,0,1-.4-.092.5.5,0,0,1-.2-.365l-.236-3.655c-.007-.767-.04-1.5-.1-2.216s-.133-1.471-.216-2.264-.183-1.645-.3-2.557-.228-1.948-.337-3.078a1.509,1.509,0,0,0-.153-.5c-.163.088-.318.143-.46.22l-7.476,3.45c-.139.065-.166.113-.166.114a6.5,6.5,0,0,0,.09,1.058c.043.475.1,1.018.166,1.653s.139,1.257.208,1.855.13,1.115.183,1.548c.049.4.078.626.085.675l.559,5.684a.494.494,0,0,1-.037.243c-.065.154-.2.492-.406,1.013l-.7,1.783q-.393,1-.827,2.035t-.773,1.775a1.365,1.365,0,0,0-.157.52c.023-.008.1.007.243.007.051,0,.109,0,.178-.007a24.423,24.423,0,0,0,2.662-.417.519.519,0,0,1,.1-.009.5.5,0,0,1,.5.438l.084.677.308,3.3q.158,1.659.346,3.227t.382,3c.127.926.263,1.77.407,2.507a.521.521,0,0,0,.1.267.435.435,0,0,0,.283.032,2.208,2.208,0,0,0,.626-.231q.355-.192.592-.35c.358-.22.853-.521,1.5-.912s1.307-.781,1.971-1.173l1.757-1.036c.456-.268.721-.426.794-.478a.605.605,0,0,0,.057-.35L829.8,135.727a.5.5,0,0,1,.4-.541l8.419-1.644a.493.493,0,0,1,.4.1.5.5,0,0,1,.192.367,3.009,3.009,0,0,0,.069.517,3.874,3.874,0,0,1,.1.693c.2,1.928.389,3.9.554,5.883a52.309,52.309,0,0,0,.781,5.7.5.5,0,0,0,.1.254.469.469,0,0,0,.286.022,3.5,3.5,0,0,0,.706-.31q.6-.3,1.363-.737t1.619-.944q.852-.513,1.6-.968t1.281-.8c.355-.226.58-.371.677-.437a.822.822,0,0,0,.035-.334l-1.134-11.545q-.223-2.126-.393-3.85t-.27-3.224l-.224-3.347a20.1,20.1,0,0,0-.118-2.8q-.168-1.586-.362-3.193l-.43-3.667a1.584,1.584,0,0,0-.153-.506c-.163.088-.319.144-.463.221l-7.567,3.468c-.1.046-.227.123-.252.216a2.521,2.521,0,0,0,.081.945Z"/><path d="M836.047,114.07a3.283,3.283,0,0,0,.065,1.39q.013.072.085.559.076.509.236,1.692c.113.817.225,1.966.335,3.413.1,1.344.269,2.976.5,4.856l-7.317,1.512-.2-3.053c-.006-.764-.041-1.526-.1-2.264s-.134-1.485-.218-2.284-.184-1.659-.3-2.578-.226-1.929-.341-3.1a2.133,2.133,0,0,0-.385-1.006.955.955,0,0,0-.946-.271,2.546,2.546,0,0,0-.717.25l-7.449,3.438a1.115,1.115,0,0,0-.744.969,7.189,7.189,0,0,0,.094,1.223c.042.456.1,1,.166,1.648s.139,1.261.209,1.862.13,1.12.184,1.555.086.688.087.688h0l.542,5.523c-.077.187-.2.5-.387.969l-.68,1.73q-.39.993-.819,2.014t-.76,1.748a1.942,1.942,0,0,0-.228,1.152c.063.325.343.85,1.47.78a21.393,21.393,0,0,0,2.259-.333l.323,3.416q.158,1.671.348,3.251t.384,3.014c.129.945.269,1.808.416,2.562a1.268,1.268,0,0,0,.64.973,1.38,1.38,0,0,0,.622.147,1.508,1.508,0,0,0,.3-.03,3.223,3.223,0,0,0,.911-.332c.268-.145.49-.278.655-.388q.512-.315,1.479-.9t1.966-1.17l1.755-1.035c.742-.437.842-.5.878-.534a1,1,0,0,0,.459-.73,2.715,2.715,0,0,0,0-.518l-.979-9.806,7.445-1.453c.009.043.017.085.027.127a2.961,2.961,0,0,1,.072.54q.307,2.92.554,5.887a53.663,53.663,0,0,0,.8,5.812,1.242,1.242,0,0,0,.654.967,1.464,1.464,0,0,0,.9.1,3.888,3.888,0,0,0,.968-.4q.617-.312,1.4-.757t1.642-.958q.857-.515,1.6-.972t1.3-.805c.368-.234.6-.385.693-.447a.99.99,0,0,0,.466-.715,2.6,2.6,0,0,0,.012-.543L848.24,130.9q-.223-2.127-.393-3.847t-.267-3.192l-.223-3.3a20.663,20.663,0,0,0-.123-2.889q-.168-1.595-.363-3.206l-.435-3.7a2.139,2.139,0,0,0-.386-1.006.952.952,0,0,0-.946-.271,2.6,2.6,0,0,0-.716.25l-7.543,3.456A1.341,1.341,0,0,0,836.047,114.07Zm.966.254c.025-.093.152-.17.252-.216l7.567-3.468c.144-.077.3-.133.463-.221a1.584,1.584,0,0,1,.153.506l.43,3.667q.2,1.606.362,3.193a20.1,20.1,0,0,1,.118,2.8l.224,3.347q.1,1.494.27,3.224t.393,3.85l1.134,11.545a.822.822,0,0,1-.035.334c-.1.066-.322.211-.677.437s-.785.494-1.281.8-1.03.626-1.6.968-1.105.655-1.619.944-.962.534-1.363.737a3.5,3.5,0,0,1-.706.31.469.469,0,0,1-.286-.022.5.5,0,0,1-.1-.254,52.309,52.309,0,0,1-.781-5.7c-.165-1.986-.351-3.955-.554-5.883a3.874,3.874,0,0,0-.1-.693,3.009,3.009,0,0,1-.069-.517.5.5,0,0,0-.192-.367.493.493,0,0,0-.4-.1l-8.419,1.644a.5.5,0,0,0-.4.541l1.024,10.251a.605.605,0,0,1-.057.35c-.073.052-.338.21-.794.478l-1.757,1.036q-1,.588-1.971,1.173c-.651.391-1.146.692-1.5.912q-.237.157-.592.35a2.208,2.208,0,0,1-.626.231.435.435,0,0,1-.283-.032.521.521,0,0,1-.1-.267c-.144-.737-.28-1.581-.407-2.507q-.2-1.425-.382-3t-.346-3.227l-.308-3.3-.084-.677a.5.5,0,0,0-.5-.438.519.519,0,0,0-.1.009,24.423,24.423,0,0,1-2.662.417c-.069.005-.127.007-.178.007-.147,0-.22-.015-.243-.007a1.365,1.365,0,0,1,.157-.52q.337-.739.773-1.775t.827-2.035l.7-1.783c.207-.521.341-.859.406-1.013a.494.494,0,0,0,.037-.243l-.559-5.684c-.007-.049-.036-.275-.085-.675-.053-.433-.114-.95-.183-1.548s-.138-1.216-.208-1.855-.123-1.178-.166-1.653a6.5,6.5,0,0,1-.09-1.058s.027-.049.166-.114l7.476-3.45c.142-.077.3-.132.46-.22a1.509,1.509,0,0,1,.153.5q.164,1.695.337,3.078.172,1.368.3,2.557t.216,2.264c.06.713.093,1.449.1,2.216l.236,3.655a.5.5,0,0,0,.2.365.493.493,0,0,0,.4.092l8.332-1.722a.5.5,0,0,0,.4-.552c-.259-2.057-.445-3.828-.553-5.264-.111-1.468-.226-2.637-.341-3.474q-.162-1.191-.237-1.7c-.053-.35-.083-.55-.093-.6v0A2.521,2.521,0,0,1,837.013,114.324Z"/><path class="k" d="M871.079,149.654a16.4,16.4,0,0,0,1.624,5.218,13.8,13.8,0,0,0,3.119,4.068,11.957,11.957,0,0,0,4.391,2.454,12.509,12.509,0,0,0,5.495.361,19.389,19.389,0,0,0,4.559-1.208,17.922,17.922,0,0,0,3.94-2.187,16.736,16.736,0,0,0,3.154-3.039,15.913,15.913,0,0,0,2.224-3.776,17.281,17.281,0,0,0,1.168-4.406,18.241,18.241,0,0,0-.054-4.91,17.781,17.781,0,0,0-2.1-6.6,11.773,11.773,0,0,0-3.923-4.061A15.487,15.487,0,0,0,889,129.534a36.833,36.833,0,0,0-7.188-.4l-.008.035a6.2,6.2,0,0,0-.116.835,8.618,8.618,0,0,1-.124.966.97.97,0,0,1-.7.864,16.991,16.991,0,0,0-4.54,2.77,15.359,15.359,0,0,0-3.336,4.009,16.029,16.029,0,0,0-1.837,5.075A18.487,18.487,0,0,0,871.079,149.654Zm8.153-6.29a13.336,13.336,0,0,1,.654-2.253,8.411,8.411,0,0,1,1.148-2.064,6.786,6.786,0,0,1,1.72-1.586,5.819,5.819,0,0,1,2.364-.848,6.217,6.217,0,0,1,3.087.289,6.682,6.682,0,0,1,2.393,1.551,8.108,8.108,0,0,1,1.636,2.435,11.038,11.038,0,0,1,.837,2.943c.1.734.172,1.511.206,2.313a15.477,15.477,0,0,1-.089,2.415,11.784,11.784,0,0,1-.515,2.336,7.589,7.589,0,0,1-1.082,2.11,6.649,6.649,0,0,1-1.771,1.655,7.291,7.291,0,0,1-2.545.99,8.229,8.229,0,0,1-1.166.086,5.721,5.721,0,0,1-2.29-.441,6.535,6.535,0,0,1-2.447-1.823,9.071,9.071,0,0,1-1.543-2.721,15.072,15.072,0,0,1-.771-3.064l0-.013a14.46,14.46,0,0,1-.079-2.047A13.679,13.679,0,0,1,879.232,143.364Z"/><path d="M870.015,149.8a17.513,17.513,0,0,0,1.732,5.557,14.868,14.868,0,0,0,3.364,4.383,13.02,13.02,0,0,0,4.781,2.674,12.618,12.618,0,0,0,3.787.557,15.575,15.575,0,0,0,2.178-.157,20.444,20.444,0,0,0,4.813-1.274,19.045,19.045,0,0,0,4.174-2.32,17.751,17.751,0,0,0,3.357-3.235,16.963,16.963,0,0,0,2.375-4.03,18.327,18.327,0,0,0,1.241-4.68,19.315,19.315,0,0,0-.054-5.2,18.844,18.844,0,0,0-2.244-7,12.838,12.838,0,0,0-4.28-4.426,16.555,16.555,0,0,0-6.062-2.182,38.34,38.34,0,0,0-7.611-.406.974.974,0,0,0-.81.871,7.279,7.279,0,0,0-.137.981,7.454,7.454,0,0,1-.108.843c-.005.024-.009.043-.013.058a18.131,18.131,0,0,0-4.869,2.963,16.442,16.442,0,0,0-3.568,4.29,17.07,17.07,0,0,0-1.963,5.414A19.6,19.6,0,0,0,870.015,149.8Zm1.139-6.119a16.029,16.029,0,0,1,1.837-5.075,15.359,15.359,0,0,1,3.336-4.009,16.991,16.991,0,0,1,4.54-2.77.97.97,0,0,0,.7-.864,8.618,8.618,0,0,0,.124-.966,6.2,6.2,0,0,1,.116-.835l.008-.035a36.833,36.833,0,0,1,7.188.4,15.487,15.487,0,0,1,5.671,2.035,11.773,11.773,0,0,1,3.923,4.061,17.781,17.781,0,0,1,2.1,6.6,18.241,18.241,0,0,1,.054,4.91,17.281,17.281,0,0,1-1.168,4.406,15.913,15.913,0,0,1-2.224,3.776,16.736,16.736,0,0,1-3.154,3.039,17.922,17.922,0,0,1-3.94,2.187,19.389,19.389,0,0,1-4.559,1.208,12.509,12.509,0,0,1-5.495-.361,11.957,11.957,0,0,1-4.391-2.454,13.8,13.8,0,0,1-3.119-4.068,16.4,16.4,0,0,1-1.624-5.218A18.487,18.487,0,0,1,871.154,143.685Z"/><path d="M879.058,147.687a15.072,15.072,0,0,0,.771,3.064,9.071,9.071,0,0,0,1.543,2.721,6.535,6.535,0,0,0,2.447,1.823,5.721,5.721,0,0,0,2.29.441,8.229,8.229,0,0,0,1.166-.086,7.291,7.291,0,0,0,2.545-.99,6.649,6.649,0,0,0,1.771-1.655,7.589,7.589,0,0,0,1.082-2.11,11.784,11.784,0,0,0,.515-2.336,15.477,15.477,0,0,0,.089-2.415c-.034-.8-.1-1.579-.206-2.313a11.038,11.038,0,0,0-.837-2.943,8.108,8.108,0,0,0-1.636-2.435,6.682,6.682,0,0,0-2.393-1.551,6.217,6.217,0,0,0-3.087-.289,5.819,5.819,0,0,0-2.364.848,6.786,6.786,0,0,0-1.72,1.586,8.411,8.411,0,0,0-1.148,2.064,13.336,13.336,0,0,0-.654,2.253,13.679,13.679,0,0,0-.255,2.263,14.46,14.46,0,0,0,.079,2.047Zm1.228-4.117a12.282,12.282,0,0,1,.6-2.071,7.353,7.353,0,0,1,1-1.8,5.706,5.706,0,0,1,1.449-1.335,4.74,4.74,0,0,1,1.932-.688,5.151,5.151,0,0,1,2.556.23,5.612,5.612,0,0,1,2.011,1.3,7.1,7.1,0,0,1,1.418,2.116,9.928,9.928,0,0,1,.754,2.657c.1.7.165,1.441.2,2.207a14.432,14.432,0,0,1-.082,2.246,10.694,10.694,0,0,1-.469,2.123,6.507,6.507,0,0,1-.928,1.814,5.6,5.6,0,0,1-1.489,1.388,6.2,6.2,0,0,1-2.142.833,5.309,5.309,0,0,1-2.85-.282,5.471,5.471,0,0,1-2.048-1.527,8.025,8.025,0,0,1-1.358-2.4,13.908,13.908,0,0,1-.716-2.838,13.442,13.442,0,0,1-.072-1.889A12.752,12.752,0,0,1,880.286,143.57Z"/><path class="k" d="M941.531,125.662c-.622.087-1.292.2-1.99.352s-1.423.313-2.146.491-1.438.367-2.139.563-1.348.389-1.944.578-1.118.365-1.574.534-.786.3-1.027.417c-.318.158-.594.288-.821.386a2.343,2.343,0,0,0-.432.23.436.436,0,0,0-.142.164,1.4,1.4,0,0,0-.106.435l-.424,3.321c-.063.567-.135,1.152-.216,1.751a7.593,7.593,0,0,0,.762-.208c.432-.136,1.005-.34,1.719-.608a.557.557,0,0,1,.188-.034.538.538,0,0,1,.536.5l.148,2.109q.086,1.206.174,2.594t.2,2.913q.109,1.533.2,3.071l.3,5.018c.073.917.129,1.744.167,2.471s.085,1.428.142,2.135l.271,3.586a.682.682,0,0,0,.033.136c.013,0,.04,0,.079-.009a4.088,4.088,0,0,0,.726-.166,4.928,4.928,0,0,0,.7-.3q.388-.2.831-.448c.3-.17.654-.364,1.052-.576l1.261-.627q.941-.466,1.562-.806c.26-.14.393-.223.459-.267l.178-.472-.374-7.565a.538.538,0,0,1,.517-.563c.27-.01.537-.028.8-.051s.528-.054.8-.092a16.539,16.539,0,0,0,4.7-1.41,15.192,15.192,0,0,0,4.088-2.794,12.983,12.983,0,0,0,1.613-1.882,8.831,8.831,0,0,0,1.083-2.11,10.138,10.138,0,0,0,.527-2.537,14.9,14.9,0,0,0-.1-3.131,9.038,9.038,0,0,0-1.473-4.078,7.16,7.16,0,0,0-2.737-2.3,10.266,10.266,0,0,0-3.731-.912A22.005,22.005,0,0,0,941.531,125.662Zm4.776,9.9a6.362,6.362,0,0,1-.1,1.194,5.768,5.768,0,0,1-.865,2.146,8,8,0,0,1-1.4,1.6,7.478,7.478,0,0,1-1.608,1.082,5.092,5.092,0,0,1-1.506.5,1.562,1.562,0,0,1-.237.018.853.853,0,0,1-.77-.37,1.488,1.488,0,0,1-.221-.61c0-.016,0-.031,0-.047l-.117-2.273q-.04-.8-.089-1.678c-.033-.59-.063-1.151-.088-1.687s-.047-1.01-.062-1.426-.03-.7-.041-.882l-.022-.468a.932.932,0,0,1,.4-.788,2.91,2.91,0,0,1,.593-.334,4.225,4.225,0,0,1,.718-.234c.242-.058.46-.1.656-.126a5.179,5.179,0,0,1,3.035.365,2.949,2.949,0,0,1,1.6,2.406A11.184,11.184,0,0,1,946.307,135.562Z"/><path d="M941.381,124.6c-.645.091-1.338.214-2.061.365s-1.446.318-2.182.5-1.46.373-2.171.572-1.373.4-1.98.588-1.151.377-1.622.55-.854.331-1.125.46c-.306.153-.566.274-.775.366a3.354,3.354,0,0,0-.632.341,1.5,1.5,0,0,0-.478.559,2.436,2.436,0,0,0-.21.775l-.426,3.332c-.073.669-.16,1.354-.257,2.055a.534.534,0,0,0,0,.149.9.9,0,0,0,1.1.769,7.16,7.16,0,0,0,1.1-.278q.45-.143,1.1-.377l.1,1.394q.086,1.2.174,2.588t.2,2.921q.111,1.527.2,3.058l.3,5.029q.109,1.375.166,2.452c.037.725.086,1.447.143,2.162l.275,3.617a1.212,1.212,0,0,0,.483.914,1.124,1.124,0,0,0,.629.178,1.626,1.626,0,0,0,.216-.015,5.124,5.124,0,0,0,.917-.212,6.062,6.062,0,0,0,.854-.364c.269-.139.556-.294.865-.467s.641-.356,1.018-.557l1.247-.621q.961-.477,1.6-.823c.652-.354.831-.5.9-.714l.263-.693a.534.534,0,0,0,.034-.217l-.353-7.143c.1-.008.21-.016.314-.026q.422-.037.85-.1a17.652,17.652,0,0,0,5.01-1.5,16.281,16.281,0,0,0,4.378-2.994,14.028,14.028,0,0,0,1.749-2.04,9.968,9.968,0,0,0,1.214-2.365,11.175,11.175,0,0,0,.585-2.806,15.945,15.945,0,0,0-.109-3.362v-.006a10.071,10.071,0,0,0-1.669-4.564,8.212,8.212,0,0,0-3.146-2.637,11.314,11.314,0,0,0-4.122-1.012A22.911,22.911,0,0,0,941.381,124.6Zm11.056,4.083a9.038,9.038,0,0,1,1.473,4.078,14.9,14.9,0,0,1,.1,3.131,10.138,10.138,0,0,1-.527,2.537,8.831,8.831,0,0,1-1.083,2.11,12.983,12.983,0,0,1-1.613,1.882,15.192,15.192,0,0,1-4.088,2.794,16.539,16.539,0,0,1-4.7,1.41c-.269.038-.533.068-.8.092s-.53.041-.8.051a.538.538,0,0,0-.517.563l.374,7.565-.178.472c-.066.044-.2.127-.459.267q-.623.339-1.562.806l-1.261.627c-.4.212-.75.406-1.052.576s-.572.315-.831.448a4.928,4.928,0,0,1-.7.3,4.088,4.088,0,0,1-.726.166c-.039.006-.066.006-.079.009a.682.682,0,0,1-.033-.136l-.271-3.586q-.086-1.061-.142-2.135c-.038-.727-.094-1.554-.167-2.471l-.3-5.018q-.09-1.537-.2-3.071t-.2-2.913q-.088-1.386-.174-2.594l-.148-2.109a.538.538,0,0,0-.536-.5.557.557,0,0,0-.188.034c-.714.268-1.287.472-1.719.608a7.593,7.593,0,0,1-.762.208c.081-.6.153-1.184.216-1.751l.424-3.321a1.4,1.4,0,0,1,.106-.435.436.436,0,0,1,.142-.164,2.343,2.343,0,0,1,.432-.23c.227-.1.5-.228.821-.386.241-.115.584-.253,1.027-.417s.98-.346,1.574-.534,1.243-.382,1.944-.578,1.415-.384,2.139-.563,1.439-.342,2.146-.491,1.368-.265,1.99-.352a22.005,22.005,0,0,1,4.438-.191,10.266,10.266,0,0,1,3.731.912A7.16,7.16,0,0,1,952.437,128.681Z"/><path d="M944.58,131.549a5.179,5.179,0,0,0-3.035-.365c-.2.027-.414.068-.656.126a4.225,4.225,0,0,0-.718.234,2.91,2.91,0,0,0-.593.334.932.932,0,0,0-.4.788l.022.468q.016.27.041.882t.062,1.426c.025.536.055,1.1.088,1.687s.062,1.147.089,1.678l.117,2.273c0,.016,0,.031,0,.047a1.488,1.488,0,0,0,.221.61.853.853,0,0,0,.77.37,1.562,1.562,0,0,0,.237-.018,5.092,5.092,0,0,0,1.506-.5,7.478,7.478,0,0,0,1.608-1.082,8,8,0,0,0,1.4-1.6,5.768,5.768,0,0,0,.865-2.146,6.362,6.362,0,0,0,.1-1.194,11.184,11.184,0,0,0-.125-1.607A2.949,2.949,0,0,0,944.58,131.549Zm.572,5a4.708,4.708,0,0,1-.7,1.755,6.943,6.943,0,0,1-1.209,1.389,6.341,6.341,0,0,1-1.373.926,4.133,4.133,0,0,1-1.185.4h-.007l-.005-.03-.116-2.242q-.041-.8-.089-1.686c-.033-.587-.063-1.145-.088-1.678s-.045-1-.061-1.416-.031-.721-.041-.9l-.018-.364a1.907,1.907,0,0,1,.34-.182,3.141,3.141,0,0,1,.538-.175c.207-.049.393-.084.559-.108a4.141,4.141,0,0,1,2.411.265,1.916,1.916,0,0,1,1.014,1.592,10.3,10.3,0,0,1,.114,1.454A5.262,5.262,0,0,1,945.152,136.551Z"/><path class="c" d="M1117.5,131.351a54.516,54.516,0,0,0,2.726-6.5c-.2-1.641-1.924-3.713-4.888-6.34C1116.288,122.954,1117.079,127.464,1117.5,131.351Z"/><path class="l" d="M1116.181,137.01a3.074,3.074,0,0,1-.077-2.195,14.321,14.321,0,0,1,.57-1.554,128.249,128.249,0,0,0-2.592-15.843q-.887-.747-1.886-1.551c-.724-.95-.874-5.026-.362-6.365.147.126.294.26.442.39-3.216-12.325-7.564-24.07-11.127-26.425-1.453-.96-4.071-1.546-7.385-1.827.049.263.106.526.152.788a1.658,1.658,0,1,1-3.131,1.092,1.638,1.638,0,0,1-.092-.6l0-.059c-.039-.466-.091-.928-.139-1.392q-.981-.026-2.01-.027c-10.28,0-23.893,1.935-32.193,4.576.077.47.15.94.237,1.41l.016.05a1.658,1.658,0,0,1-3.164.993,1.7,1.7,0,0,1-.072-.611c-.023-.246-.036-.5-.057-.742a11.069,11.069,0,0,0-3.784,2.293c-2.717,2.989-4.174,17.086-4.386,30.849,2.924,1.22,1.925,4.573-.023,4.809.067,11.5,1.033,21.787,2.889,23.833,1.006,1.108,5.076,1.58,10.768,1.58,18.629,0,54.629-5.058,57.368-9.422a7.172,7.172,0,0,0,.671-3.22A7.2,7.2,0,0,1,1116.181,137.01Zm-22.059-34.385a10.338,10.338,0,0,1-1.783,8.706c.229-.093.451-.2.687-.281a9.021,9.021,0,0,1,3.195-.539,31.684,31.684,0,0,0-5.614,2.781c-1.791,1.068-3.5,2.264-5.337,3.392a16.027,16.027,0,0,1,2.369-2.467,6.914,6.914,0,0,1-5.4-1.361c-2.96-2.294-3.916-6.34-3.14-9.881.9-3.671,3.961-7.05,8.006-6.807C1090.656,96.382,1093.3,99.31,1094.122,102.625Zm-14-11.331a6.176,6.176,0,0,1,3.629-1.76,7.178,7.178,0,0,1,3.913.647,6.893,6.893,0,0,1,2.888,2.466,20.6,20.6,0,0,0-3.369-1.061,9.692,9.692,0,0,0-3.2-.171,7.208,7.208,0,0,0-2.92,1.033,12.409,12.409,0,0,0-2.6,2.3A5.82,5.82,0,0,1,1080.122,91.294Zm-6.53,12.208a9.212,9.212,0,0,1-.13,9.628,6.6,6.6,0,0,1-4.228,2.785,16.1,16.1,0,0,1,3.212,1.855c-2.071-.594-4.038-1.289-6.05-1.838a31.686,31.686,0,0,0-6.154-1.175,9.029,9.029,0,0,1,3.223-.337c.148.008.294.025.441.038a9.369,9.369,0,0,1-3.26-6.581c-.16-3.5,1.7-7.333,5.372-8.134C1069.1,99.071,1072.059,100.885,1073.592,103.5Zm-14.483-6.163a5.82,5.82,0,0,1,1.654-3.453,6.169,6.169,0,0,1,3.629-1.759,7.169,7.169,0,0,1,3.913.646,6.9,6.9,0,0,1,2.888,2.467,20.409,20.409,0,0,0-3.369-1.061,9.665,9.665,0,0,0-3.2-.172,7.2,7.2,0,0,0-2.92,1.034A12.378,12.378,0,0,0,1059.109,97.339Zm38.436,23.945a25.325,25.325,0,0,1-3.731,13.032.173.173,0,0,1-.02.082,15.111,15.111,0,0,1-6.965,5.684,14.707,14.707,0,0,1-7.517.767,17.1,17.1,0,0,1-3.9-1.094,3.384,3.384,0,0,1-1.044-.493c-5.975-2.862-10.1-8.59-12.581-14.595a4.229,4.229,0,0,1-.368-1.759,5.116,5.116,0,0,0-.426.4,3.653,3.653,0,0,0-.753,1.187,2.062,2.062,0,0,1,.235-1.553,3.212,3.212,0,0,1,1.125-1.159,4.9,4.9,0,0,1,2.992-.614c-.816.483-1.645.777-2.361,1.19a1.621,1.621,0,0,1,.3.042,10.344,10.344,0,0,1,2.316,1.464,18.408,18.408,0,0,0,3.042,1.526,24.775,24.775,0,0,0,14.306.881,22.38,22.38,0,0,0,11.1-5.809,16.475,16.475,0,0,1,2.315-2.607,8.322,8.322,0,0,0-1.626-.1,3.23,3.23,0,0,1,4.917,1.532,8.367,8.367,0,0,0-1.406-.849A9.869,9.869,0,0,1,1097.545,121.284Z"/><path d="M1121.658,139.592c-.594-.793,1.675.27,1.628-.48-.043-.686-4.63-1.563-5.15-2.554-.938-1.789,5.649-10.184,5.12-13.089-.326-1.79-4.792-7.765-9.633-12.349-3.053-12.079-7.735-25.719-11.922-28.487-1.5-.989-4.045-1.638-7.558-1.958a4.7,4.7,0,0,1,1.223-.841,32.444,32.444,0,0,1,4.759-1.677,32.973,32.973,0,0,0-5.235.124,7.371,7.371,0,0,0-1.736.483,45.319,45.319,0,0,0-1.572-5.28,28.7,28.7,0,0,0-4.477-8.142,15.7,15.7,0,0,0-11.972-6.219,21.948,21.948,0,0,0-4.507.323,21.74,21.74,0,0,1,4.471.082,16.14,16.14,0,0,1,4.24,1.176,15.336,15.336,0,0,1,6.465,5.608,21.647,21.647,0,0,1,1.221,2.081,11.041,11.041,0,0,0-3.748-2.1,14.092,14.092,0,0,0-6.491-.257,13.705,13.705,0,0,1,6.195,1.013,10.791,10.791,0,0,1,4.478,4.052,17,17,0,0,1,1.618,3.344,4.626,4.626,0,0,0-.78-.265,6.923,6.923,0,0,0-3.289.1,6.513,6.513,0,0,1,3,.66,4.285,4.285,0,0,1,1.823,1.976c.107.44.209.881.295,1.324h0c.027.139.045.28.071.419q.142.9.252,1.81c-.617-.015-1.241-.028-1.9-.028-10.245,0-23.823,1.912-32.348,4.609-.087-.6-.166-1.2-.232-1.807s-.09-1.185-.1-1.779a4.276,4.276,0,0,1,1.238-2.386,6.512,6.512,0,0,1,2.723-1.427,6.917,6.917,0,0,0-3.2.77,4.535,4.535,0,0,0-.682.461,16.854,16.854,0,0,1,.681-3.651,10.787,10.787,0,0,1,3.254-5.088,13.707,13.707,0,0,1,5.71-2.608,14.1,14.1,0,0,0-6.2,1.956,11.061,11.061,0,0,0-3.063,3.013,21.541,21.541,0,0,1,.631-2.329,15.33,15.33,0,0,1,4.761-7.11,16.122,16.122,0,0,1,3.781-2.251,21.712,21.712,0,0,1,4.292-1.255,21.908,21.908,0,0,0-4.433.874,15.709,15.709,0,0,0-9.914,9.149,28.737,28.737,0,0,0-2.177,9.033,45.215,45.215,0,0,0-.127,5.508,7.4,7.4,0,0,0-1.8-.009,32.991,32.991,0,0,0-5.083,1.258,32.3,32.3,0,0,1,5.032.366,4.48,4.48,0,0,1,1.508.546,11.8,11.8,0,0,0-4.007,2.453c-3.062,3.369-4.4,18.134-4.635,30.83,0,.107,0,.216-.005.324-5.777-2.008-12.3-4.714-13.248-6.574-.283-1.264.655-8.75.484-10.778a17.714,17.714,0,0,1,.129-2.316c.064-4.579-2.807-10.112-3.216-9.635-.627.732,1.9,3.058,1.233,5.738-.241.961-.847-1.471-1.4-.961-.505.466,1.707,4.466,1.538,5.572-.262,1.729-2.631,12.155-1.144,14.706,1.029,1.765,8.761,6.715,15.5,9.24.033.015.063.019.1.033.053,10.763.88,22.155,3.15,24.657.743.819,2.745,1.908,11.508,1.908,4.168,0,9.684-.292,15.664-.812.413,4.042,1.136,9.108,1.325,12.465-8.75-3.676-12.381-.569-13.39,1.071a.671.671,0,0,0,.451,1.019c2.263.4,8.589,1.274,14.215-.084a122.81,122.81,0,0,1,.86-14.794c4.264-.42,8.667-.943,12.921-1.55,4.265,4.278,8.225,7.774,11.694,15.279l12.89.14a.7.7,0,0,0,.525-1.153c-1.417-1.634-3.792-4.868-12.622-.462-.259-1.838-3.221-9.3-6.912-14.666,10.52-1.753,19.119-3.994,20.594-6.344a6.822,6.822,0,0,0,.755-2.849c3.425,2.93,9.251,4.117,9.141,3.513C1126.717,141.3,1123.316,141.8,1121.658,139.592Zm-1.428-14.745a54.516,54.516,0,0,1-2.726,6.5c-.425-3.887-1.216-8.4-2.162-12.844C1118.306,121.134,1120.025,123.206,1120.23,124.847Zm-61.452,25.633c-5.692,0-9.762-.472-10.768-1.58-1.856-2.046-2.822-12.335-2.889-23.833,1.948-.236,2.947-3.589.023-4.809.212-13.763,1.669-27.86,4.386-30.849a11.069,11.069,0,0,1,3.784-2.293c.021.247.034.5.057.742a1.7,1.7,0,0,0,.072.611,1.658,1.658,0,0,0,3.164-.993l-.016-.05c-.087-.47-.16-.94-.237-1.41,8.3-2.641,21.913-4.576,32.193-4.576q1.029,0,2.01.027c.048.464.1.926.139,1.392l0,.059a1.638,1.638,0,0,0,.092.6,1.658,1.658,0,1,0,3.131-1.092c-.046-.262-.1-.525-.152-.788,3.314.281,5.932.867,7.385,1.827,3.563,2.355,7.911,14.1,11.127,26.425-.148-.13-.3-.264-.442-.39-.512,1.339-.362,5.415.362,6.365q1,.806,1.886,1.551a128.249,128.249,0,0,1,2.592,15.843,14.321,14.321,0,0,0-.57,1.554,3.074,3.074,0,0,0,.077,2.195,7.2,7.2,0,0,0,.636.828,7.172,7.172,0,0,1-.671,3.22C1113.407,145.422,1077.407,150.48,1058.778,150.48Z"/><path class="m" d="M1081.3,140.5a13.125,13.125,0,0,0,9.337-3.364,15.167,15.167,0,0,0,1.788-1.926l.149-.192a.779.779,0,0,1-.357-.16c-1.862-1.51-5.108-.475-6.948.589a.673.673,0,0,1-.908-.262,2.617,2.617,0,0,1-1.4.462.41.41,0,0,1-.148.006c-2.112-.354-5.206-.283-6.976,1.069a2.147,2.147,0,0,0-.857,1.306c-.137.71.239.989.757,1.2l.146.058c.167.063.343.122.521.189A15.791,15.791,0,0,0,1081.3,140.5Z"/><path class="n" d="M1084.449,134.387a.6.6,0,0,0-.17.258c.308-.223.595-.47.814-.624a14.078,14.078,0,0,1,1.93-1.184A8.087,8.087,0,0,0,1084.449,134.387Z"/><path class="n" d="M1085.264,135.443c1.84-1.064,5.086-2.1,6.948-.589a.779.779,0,0,0,.357.16c.363-.476.4-.636-.246-1.142a6.288,6.288,0,0,0-.987-.652,4.241,4.241,0,0,0-3.921-.008,23.015,23.015,0,0,0-2.719,1.754c-.109.072-.224.144-.34.215A.673.673,0,0,0,1085.264,135.443Z"/><path d="M1096.82,117.3a3.041,3.041,0,0,0-2.839.456,8.322,8.322,0,0,1,1.626.1,16.475,16.475,0,0,0-2.315,2.607,22.38,22.38,0,0,1-11.1,5.809,24.775,24.775,0,0,1-14.306-.881,18.408,18.408,0,0,1-3.042-1.526,10.344,10.344,0,0,0-2.316-1.464,1.621,1.621,0,0,0-.3-.042c.716-.413,1.545-.707,2.361-1.19a4.9,4.9,0,0,0-2.992.614,3.212,3.212,0,0,0-1.125,1.159,2.062,2.062,0,0,0-.235,1.553,3.653,3.653,0,0,1,.753-1.187,5.116,5.116,0,0,1,.426-.4,4.229,4.229,0,0,0,.368,1.759c2.476,6,6.606,11.733,12.581,14.595a3.384,3.384,0,0,0,1.044.493,17.1,17.1,0,0,0,3.9,1.094,14.707,14.707,0,0,0,7.517-.767,15.111,15.111,0,0,0,6.965-5.684.173.173,0,0,0,.02-.082,25.325,25.325,0,0,0,3.731-13.032,9.869,9.869,0,0,0-.053-2.846,8.367,8.367,0,0,1,1.406.849A3.031,3.031,0,0,0,1096.82,117.3Zm-21.086,21.926c-.518-.212-.894-.491-.757-1.2a2.147,2.147,0,0,1,.857-1.306c1.77-1.352,4.864-1.423,6.976-1.069a.41.41,0,0,0,.148-.006,2.617,2.617,0,0,0,1.4-.462c.116-.071.231-.143.34-.215a23.015,23.015,0,0,1,2.719-1.754,4.241,4.241,0,0,1,3.921.008,6.288,6.288,0,0,1,.987.652c.641.506.609.666.246,1.142l-.149.192a15.167,15.167,0,0,1-1.788,1.926,13.125,13.125,0,0,1-9.337,3.364,15.791,15.791,0,0,1-4.894-1.024c-.178-.067-.354-.126-.521-.189Zm10.958-13.958.8,3.431a.612.612,0,0,1-.369.707l-3.367,1.344a.64.64,0,0,1-.836-.366l-1.367-3.583A27.277,27.277,0,0,0,1086.692,125.267Zm-2.413,9.378a.6.6,0,0,1,.17-.258,8.087,8.087,0,0,1,2.574-1.55,14.078,14.078,0,0,0-1.93,1.184C1084.874,134.175,1084.587,134.422,1084.279,134.645Zm-4.841-7.5c.073-.009.146-.022.219-.031l-.185,3.847a.573.573,0,0,1-.6.545l-4.178-.2a.647.647,0,0,1-.607-.544l-.569-3.536A27.62,27.62,0,0,0,1079.438,127.141Z"/><path class="k" d="M1083.76,130.749l3.367-1.344a.612.612,0,0,0,.369-.707l-.8-3.431a27.277,27.277,0,0,1-5.135,1.533l1.367,3.583A.64.64,0,0,0,1083.76,130.749Z"/><path class="k" d="M1073.519,127.218l.569,3.536a.647.647,0,0,0,.607.544l4.178.2a.573.573,0,0,0,.6-.545l.185-3.847c-.073.009-.146.022-.219.031A27.62,27.62,0,0,1,1073.519,127.218Z"/><path d="M1081.064,92.448a7.208,7.208,0,0,1,2.92-1.033,9.692,9.692,0,0,1,3.2.171,20.6,20.6,0,0,1,3.369,1.061,6.893,6.893,0,0,0-2.888-2.466,7.178,7.178,0,0,0-3.913-.647,6.176,6.176,0,0,0-3.629,1.76,5.82,5.82,0,0,0-1.654,3.453A12.409,12.409,0,0,1,1081.064,92.448Z"/><path d="M1064.625,94.007a9.665,9.665,0,0,1,3.2.172,20.409,20.409,0,0,1,3.369,1.061,6.9,6.9,0,0,0-2.888-2.467,7.169,7.169,0,0,0-3.913-.646,6.169,6.169,0,0,0-3.629,1.759,5.82,5.82,0,0,0-1.654,3.453,12.378,12.378,0,0,1,2.6-2.3A7.2,7.2,0,0,1,1064.625,94.007Z"/><path class="k" d="M1085.209,105.937a.718.718,0,0,0-.943.493.846.846,0,0,0,.6.965.72.72,0,0,0,.943-.493A.846.846,0,0,0,1085.209,105.937Z"/><path class="k" d="M1086.049,96.87c-3.295.368-5.554,3.239-6.3,6.285-.791,3.613.407,7.923,3.833,9.776a6.156,6.156,0,0,0,5.722.034c.262-.178.519-.362.789-.529.144-.085.3-.156.442-.238a7.219,7.219,0,0,0,1.021-.945,9.62,9.62,0,0,0,1.556-9.593C1092,98.785,1089.254,96.512,1086.049,96.87Zm3.418,9.265a2.914,2.914,0,0,1-3.6,2.362,3.428,3.428,0,0,1-2.1-4.1,2.914,2.914,0,0,1,3.6-2.362,2.793,2.793,0,0,1,.5.213,1.17,1.17,0,0,0-.58.765,1.481,1.481,0,0,0,1.057,1.687,1.361,1.361,0,0,0,1.143-.14A3.764,3.764,0,0,1,1089.467,106.135Z"/><path d="M1079.095,102.975c-.776,3.541.18,7.587,3.14,9.881a6.914,6.914,0,0,0,5.4,1.361,16.027,16.027,0,0,0-2.369,2.467c1.837-1.128,3.546-2.324,5.337-3.392a31.684,31.684,0,0,1,5.614-2.781,9.021,9.021,0,0,0-3.195.539c-.236.079-.458.188-.687.281a10.338,10.338,0,0,0,1.783-8.706c-.82-3.315-3.466-6.243-7.021-6.457C1083.056,95.925,1080,99.3,1079.095,102.975Zm12.459,8.278a7.219,7.219,0,0,1-1.021.945c-.146.082-.3.153-.442.238-.27.167-.527.351-.789.529a6.156,6.156,0,0,1-5.722-.034c-3.426-1.853-4.624-6.163-3.833-9.776.748-3.046,3.007-5.917,6.3-6.285,3.205-.358,5.952,1.915,7.061,4.79A9.62,9.62,0,0,1,1091.554,111.253Z"/><path d="M1088.35,104.7a1.481,1.481,0,0,1-1.057-1.687,1.17,1.17,0,0,1,.58-.765,2.793,2.793,0,0,0-.5-.213,2.914,2.914,0,0,0-3.6,2.362,3.428,3.428,0,0,0,2.1,4.1,2.914,2.914,0,0,0,3.6-2.362,3.764,3.764,0,0,0,.026-1.572A1.361,1.361,0,0,1,1088.35,104.7Zm-2.536,2.2a.72.72,0,0,1-.943.493.846.846,0,0,1-.6-.965.718.718,0,0,1,.943-.493A.846.846,0,0,1,1085.814,106.9Z"/><path class="k" d="M1065.085,100.765c-2.708,1.239-3.891,4.288-3.762,7.112a8.348,8.348,0,0,0,4.13,6.809c.407.083.812.176,1.211.284s.773.247,1.156.381a5.982,5.982,0,0,0,5.667-3.635,8.7,8.7,0,0,0-1.057-8.731C1070.726,100.768,1067.75,99.544,1065.085,100.765Zm2.875,10.537a3.511,3.511,0,0,1-3.3-3.446,3.107,3.107,0,0,1,2.893-3.493,2.8,2.8,0,0,1,.564.055,1.253,1.253,0,0,0-.353.948,1.514,1.514,0,0,0,1.551,1.358,1.434,1.434,0,0,0,1.1-.5,3.945,3.945,0,0,1,.437,1.583A3.108,3.108,0,0,1,1067.96,111.3Z"/><path class="k" d="M1066.549,108.944a.767.767,0,0,0-.8.79.866.866,0,0,0,.887.777.767.767,0,0,0,.8-.79A.866.866,0,0,0,1066.549,108.944Z"/><path d="M1066.018,99.743c-3.674.8-5.532,4.638-5.372,8.134a9.369,9.369,0,0,0,3.26,6.581c-.147-.013-.293-.03-.441-.038a9.029,9.029,0,0,0-3.223.337,31.686,31.686,0,0,1,6.154,1.175c2.012.549,3.979,1.244,6.05,1.838a16.1,16.1,0,0,0-3.212-1.855,6.6,6.6,0,0,0,4.228-2.785,9.212,9.212,0,0,0,.13-9.628C1072.059,100.885,1069.1,99.071,1066.018,99.743Zm7.469,11.973a5.982,5.982,0,0,1-5.667,3.635c-.383-.134-.766-.269-1.156-.381s-.8-.2-1.211-.284a8.348,8.348,0,0,1-4.13-6.809c-.129-2.824,1.054-5.873,3.762-7.112,2.665-1.221,5.641,0,7.345,2.22A8.7,8.7,0,0,1,1073.487,111.716Z"/><path d="M1069.317,106.724a1.514,1.514,0,0,1-1.551-1.358,1.253,1.253,0,0,1,.353-.948,2.8,2.8,0,0,0-.564-.055,3.107,3.107,0,0,0-2.893,3.493,3.511,3.511,0,0,0,3.3,3.446,3.108,3.108,0,0,0,2.892-3.494,3.945,3.945,0,0,0-.437-1.583A1.434,1.434,0,0,1,1069.317,106.724Zm-2.677,3.787a.866.866,0,0,1-.887-.777.767.767,0,0,1,.8-.79.866.866,0,0,1,.887.777A.767.767,0,0,1,1066.64,110.511Z"/></g></svg>